<?xml version="1.0" encoding="utf-8"?>
<!-- Generator: Adobe Illustrator 17.0.0, SVG Export Plug-In . SVG Version: 6.00 Build 0)  -->
<!DOCTYPE svg PUBLIC "-//W3C//DTD SVG 1.1//EN" "http://www.w3.org/Graphics/SVG/1.1/DTD/svg11.dtd">
<svg version="1.1" id="Layer_1" xmlns="http://www.w3.org/2000/svg" xmlns:xlink="http://www.w3.org/1999/xlink" x="0px" y="0px"
	 width="72px" height="72px" viewBox="0 0 72 72" enable-background="new 0 0 72 72" xml:space="preserve">
<g>
	<path fill="#FFFFFF" d="M26.051,11.789c-0.413,0.023-0.856-0.084-1.297-0.21c-0.304-0.086-0.574-0.24-0.838-0.412
		c-0.301-0.198-0.608-0.388-0.909-0.584c-0.364-0.237-0.683-0.519-0.967-0.854c-0.282-0.332-0.538-0.676-0.742-1.059
		c-0.202-0.378-0.203-0.784-0.092-1.184c0.04-0.141,0.092-0.275,0.065-0.419c-0.036-0.194-0.024-0.387,0.032-0.57
		c0.034-0.109,0.116-0.204,0.181-0.303c0.028-0.041,0.173-0.019,0.191,0.023c0.019,0.043,0.051,0.083,0.06,0.127
		c0.133,0.657,0.418,1.222,0.957,1.643c0.093,0.072,0.16,0.178,0.239,0.268c0.191,0.216,0.378,0.437,0.574,0.648
		c0.13,0.14,0.266,0.279,0.413,0.403c0.467,0.392,0.996,0.574,1.607,0.416c0.274-0.071,0.569-0.092,0.794-0.302
		c0.048-0.044,0.13-0.056,0.198-0.07c0.54-0.116,1.086-0.204,1.617-0.349c0.671-0.183,1.316-0.442,1.935-0.762
		c0.127-0.066,0.25-0.148,0.358-0.241c0.327-0.282,0.652-0.568,0.967-0.863c0.103-0.096,0.184-0.221,0.26-0.342
		c0.052-0.082,0.089-0.172,0.187-0.205c0.163-0.056,0.332-0.084,0.493-0.013c0.175,0.076,0.341,0.173,0.509,0.266
		c0.078,0.043,0.128,0.169,0.11,0.25c-0.156,0.708-0.284,1.077-0.664,1.82c-0.075,0.147-0.175,0.292-0.296,0.402
		c-0.537,0.489-1.129,0.898-1.811,1.161c-0.65,0.25-1.295,0.513-1.928,0.803c-0.371,0.169-0.76,0.295-1.156,0.399
		C26.77,11.761,26.44,11.796,26.051,11.789z"/>
	<path fill="#FFFFFF" d="M47.331,13.209c-0.237,0.026-0.471-0.011-0.697-0.108c-0.198-0.084-0.408-0.147-0.6-0.243
		c-0.536-0.269-1.067-0.548-1.598-0.828c-0.579-0.306-1.086-0.705-1.516-1.201c-0.22-0.254-0.466-0.483-0.71-0.715
		c-0.243-0.23-0.476-0.474-0.696-0.727c-0.19-0.219-0.325-0.476-0.414-0.753c-0.045-0.139-0.068-0.301,0.049-0.408
		c0.158-0.144,0.13-0.355,0.224-0.522c0.067-0.121,0.081-0.274,0.11-0.414c0.024-0.117,0.028-0.238,0.055-0.354
		c0.024-0.1,0.109-0.159,0.2-0.19c0.066-0.023,0.142-0.026,0.213-0.022c0.126,0.006,0.253,0.051,0.29,0.176
		c0.107,0.353,0.315,0.642,0.529,0.934c0.156,0.213,0.287,0.444,0.431,0.665c0.343,0.523,0.701,1.035,1.208,1.419
		c0.038,0.029,0.072,0.064,0.104,0.1c0.527,0.606,1.209,1.021,1.851,1.484c0.196,0.142,0.398,0.16,0.609,0.06
		c0.195-0.092,0.396-0.179,0.574-0.298c0.379-0.253,0.746-0.523,1.116-0.79c0.058-0.041,0.12-0.087,0.158-0.145
		c0.186-0.287,0.463-0.478,0.718-0.693c0.018-0.015,0.041-0.024,0.059-0.041c0.211-0.191,0.305-0.487,0.584-0.625
		c0.244-0.121,0.356-0.386,0.546-0.566C50.911,8.235,51,8.01,51.135,7.814c0.08-0.116,0.239-0.169,0.383-0.139
		c0.266,0.053,0.476,0.219,0.708,0.343c0.092,0.049,0.119,0.152,0.121,0.248c0.002,0.34-0.061,0.669-0.194,0.982
		c-0.142,0.332-0.305,0.652-0.53,0.938c-0.34,0.434-0.681,0.864-1.124,1.208c-0.36,0.279-0.685,0.604-1.033,0.898
		c-0.202,0.17-0.412,0.332-0.63,0.478C48.384,13.069,47.886,13.226,47.331,13.209z"/>
	<path fill="#FFFFFF" d="M65.91,18.873c-0.068-0.407-0.022-0.813-0.005-1.221c0.008-0.192,0.013-0.387-0.012-0.577
		c-0.074-0.573-0.087-1.151-0.157-1.722c-0.161-1.316-0.207-2.638-0.309-3.957c-0.049-0.621-0.075-1.248-0.246-1.857
		c-0.111-0.392-0.211-0.792-0.271-1.194c-0.064-0.433-0.211-0.839-0.314-1.259c-0.05-0.203-0.186-0.335-0.371-0.412
		c-0.176-0.073-0.359-0.13-0.535-0.193c-0.1,0.051-0.186,0.093-0.271,0.139c-0.309,0.169-0.544,0.389-0.581,0.769
		c-0.009,0.092-0.058,0.185-0.108,0.266c-0.105,0.171-0.123,0.357-0.135,0.552c-0.033,0.527-0.031,1.057-0.181,1.573
		c-0.046,0.157-0.027,0.334-0.039,0.501c-0.034,0.431-0.067,0.863-0.105,1.294c-0.002,0.034-0.041,0.066-0.062,0.097
		c-0.102-0.041-0.167-0.128-0.174-0.218c-0.029-0.335-0.145-0.652-0.174-0.988c-0.05-0.574-0.083-1.154-0.201-1.715
		c-0.16-0.755-0.253-1.518-0.382-2.277c-0.119-0.697-0.378-1.339-0.641-1.984c-0.046-0.113-0.122-0.206-0.239-0.258
		c-0.088-0.039-0.179-0.075-0.261-0.123c-0.27-0.16-0.552-0.147-0.838-0.067c-0.092,0.026-0.181,0.066-0.269,0.105
		c-0.234,0.107-0.381,0.285-0.433,0.54c-0.039,0.188-0.058,0.386-0.133,0.559c-0.22,0.506-0.452,1.005-0.732,1.481
		c-0.012,0.02-0.027,0.045-0.046,0.054c-0.041,0.018-0.1,0.052-0.126,0.036c-0.222-0.129-0.42,0.031-0.629,0.041
		c-0.249,0.013-0.467,0.1-0.67,0.237c-0.139,0.095-0.28,0.185-0.403,0.267c-0.151,0.3-0.256,0.59-0.292,0.906
		c-0.03,0.262-0.087,0.522-0.134,0.782c-0.056,0.311-0.066,0.617,0.025,0.928c0.06,0.206,0.097,0.42,0.084,0.641
		c-0.019,0.336-0.015,0.673-0.028,1.009c-0.005,0.117-0.03,0.234-0.045,0.345c-0.105,0.056-0.193,0.096-0.272,0.147
		c-0.52,0.334-0.809,0.808-0.856,1.425c-0.009,0.12-0.012,0.241-0.011,0.361c0.002,0.267-0.038,0.524-0.11,0.783
		c-0.143,0.511-0.197,1.04-0.262,1.564c-0.044,0.357-0.079,0.716-0.117,1.074c-0.041,0.384-0.114,0.756-0.192,1.132
		c-0.156,0.751-0.288,1.508-0.412,2.265c-0.081,0.498-0.145,1.001-0.187,1.504c-0.075,0.911-0.124,1.823-0.196,2.734
		c-0.02,0.262-0.07,0.52-0.186,0.766c-0.123,0.26-0.222,0.533-0.314,0.806c-0.169,0.501-0.32,1.006-0.324,1.543
		c-0.006,0.676-0.118,1.342-0.227,2.006c-0.074,0.45-0.207,0.89-0.286,1.34c-0.058,0.338-0.162,0.645-0.34,0.941
		c-0.135,0.224-0.252,0.476-0.299,0.729c-0.079,0.424-0.283,0.761-0.564,1.068c-0.194,0.212-0.38,0.429-0.549,0.666
		c-0.378,0.529-0.798,1.023-1.354,1.385c-0.442,0.288-0.874,0.593-1.33,0.86c-0.353,0.207-0.704,0.413-1.027,0.668
		c-0.186,0.147-0.403,0.261-0.616,0.37c-0.28,0.142-0.577,0.26-0.809,0.471c-0.258,0.234-0.607,0.291-0.87,0.504
		c-0.112,0.091-0.232,0.172-0.35,0.255c-0.118,0.083-0.233,0.173-0.358,0.242c-0.402,0.22-0.761,0.506-1.146,0.749
		c-0.414,0.261-0.719,0.629-1.078,0.943c-0.216,0.19-0.433,0.383-0.621,0.6c-0.143,0.166-0.298,0.315-0.467,0.447
		c-0.305,0.237-0.558,0.526-0.823,0.804c-0.284,0.297-0.548,0.607-0.701,0.996c-0.425,0.586-0.752,1.231-1.107,1.857
		c-0.177,0.313-0.307,0.644-0.401,0.998c-0.18,0.679-0.247,1.372-0.326,2.064c-0.007,0.067-0.001,0.157,0.038,0.206
		c0.134,0.17,0.1,0.347,0.085,0.544c-0.034,0.454-0.06,0.911,0.011,1.368c0.026,0.165,0.041,0.335,0.041,0.502
		c0,0.913,0.017,1.824,0.162,2.729c0.019,0.118,0.017,0.238,0.026,0.358c0.04,0.527-0.003,1.057,0.031,1.585
		c0.014,0.019,0.023,0.044,0.041,0.058c0.119,0.096,0.204,0.205,0.134,0.366c-0.128,0.292-0.153,0.596-0.116,0.91
		c-0.085,0.16,0.056,0.192,0.14,0.265c0.026,0.022,0.02,0.091,0.015,0.137c-0.01,0.084-0.066,0.096-0.147,0.109
		c-0.134,0.02-0.145,0.054-0.08,0.191c0.03,0.064,0.095,0.121,0.049,0.194c-0.075,0.118-0.057,0.221,0.014,0.333
		c0.022,0.036,0.032,0.103,0.013,0.137c-0.15,0.279-0.2,0.59-0.304,0.883c-0.006,0.019-0.032,0.036-0.051,0.047
		c-0.019,0.011-0.043,0.017-0.065,0.017c-0.02,0-0.055-0.01-0.058-0.021c-0.079-0.332-0.055-0.668-0.036-1.004
		c0.008-0.143,0.027-0.287,0.023-0.429c-0.007-0.264-0.041-0.527-0.039-0.792c0.006-0.601,0.033-1.202,0.041-1.803
		c0.011-0.865-0.045-1.73-0.079-2.594c-0.027-0.696-0.107-1.391-0.163-2.086c-0.042-0.527-0.126-1.056-0.116-1.581
		c0.013-0.678-0.057-1.346-0.128-2.016c-0.056-0.526-0.133-1.05-0.225-1.57c-0.118-0.666-0.352-1.299-0.584-1.932
		c-0.27-0.735-0.693-1.368-1.251-1.918c-0.675-0.667-1.44-1.204-2.285-1.624c-0.689-0.344-1.37-0.701-2.057-1.048
		c-0.582-0.296-1.122-0.653-1.637-1.05c-0.171-0.132-0.339-0.27-0.516-0.395c-0.492-0.35-0.945-0.745-1.362-1.181
		c-0.15-0.156-0.307-0.305-0.463-0.455c-0.489-0.469-0.927-0.982-1.289-1.552c-0.412-0.65-0.8-1.316-1.19-1.978
		c-0.563-0.958-0.959-1.992-1.357-3.024c-0.103-0.269-0.196-0.544-0.266-0.824c-0.278-1.123-0.48-2.26-0.556-3.416
		c-0.05-0.769-0.17-1.529-0.349-2.276c-0.156-0.655-0.305-1.309-0.365-1.982c-0.049-0.552-0.074-1.107-0.166-1.651
		c-0.073-0.431-0.096-0.859-0.101-1.291c-0.003-0.24-0.032-0.48-0.032-0.719c-0.003-0.625-0.093-1.247-0.03-1.873
		c0.044-0.43,0.048-0.864-0.011-1.296c-0.025-0.19-0.03-0.387-0.005-0.576c0.055-0.409,0.06-0.815-0.007-1.222
		c0.039-0.799-0.143-1.578-0.233-2.364c-0.046-0.403-0.173-0.798-0.266-1.196c-0.011-0.046-0.03-0.092-0.053-0.134
		c-0.21-0.384-0.477-0.725-0.812-1.005c-0.257-0.216-0.561-0.269-0.88-0.143c-0.134,0.053-0.257,0.13-0.387,0.192
		c-0.019,0.009-0.059,0.011-0.069-0.002c-0.028-0.034-0.066-0.078-0.062-0.115c0.027-0.287,0.077-0.572,0.092-0.859
		c0.025-0.504,0.036-1.008,0.039-1.512c0.001-0.192-0.041-0.382-0.149-0.551c-0.091-0.142-0.173-0.288-0.265-0.429
		c-0.169-0.261-0.425-0.384-0.723-0.419c-0.143-0.017-0.288,0-0.433-0.01c-0.068-0.004-0.134-0.035-0.215-0.058
		c0.011-0.128,0.01-0.249,0.034-0.365c0.049-0.236,0.1-0.472,0.173-0.701c0.104-0.331,0.103-0.661,0.039-1.015
		c-0.084-0.072-0.181-0.143-0.261-0.231c-0.062-0.068-0.147-0.16-0.143-0.238c0.01-0.236-0.142-0.404-0.207-0.607
		c-0.096-0.292-0.329-0.467-0.584-0.61c-0.103-0.058-0.227-0.079-0.335-0.132c-0.322-0.16-0.656-0.156-0.985-0.053
		c-0.471,0.146-0.873,0.408-1.167,0.808c-0.448,0.608-0.754,1.282-0.878,2.033c-0.035,0.214-0.086,0.426-0.1,0.642
		c-0.026,0.39-0.13,0.757-0.276,1.115c-0.072,0.178-0.136,0.36-0.213,0.536c-0.381,0.883-0.655,1.808-1.056,2.683
		c-0.02,0.044-0.039,0.088-0.05,0.135c-0.191,0.824-0.517,1.601-0.823,2.384c-0.246,0.63-0.425,1.278-0.533,1.944
		c-0.088,0.548-0.211,1.085-0.434,1.596c-0.058,0.131-0.085,0.275-0.126,0.414c-0.147,0.508-0.289,1.018-0.44,1.524
		c-0.102,0.346-0.212,0.689-0.21,1.057c0.001,0.141-0.05,0.283-0.078,0.424c-0.126,0.66-0.255,1.32-0.374,1.982
		c-0.03,0.164-0.056,0.339-0.03,0.501c0.053,0.339,0.018,0.671-0.011,1.006c-0.054,0.621-0.105,1.243-0.089,1.867
		c0.006,0.24-0.015,0.477-0.041,0.717c-0.062,0.55-0.075,1.106,0.021,1.654c0.059,0.335,0.074,0.668,0.043,1.005
		c-0.015,0.168-0.005,0.337-0.011,0.506c-0.015,0.438,0.036,0.865,0.21,1.271c0.135,0.316,0.172,0.652,0.185,0.987
		c0.014,0.363,0.061,0.715,0.161,1.064c0.059,0.207,0.106,0.424,0.11,0.638c0.011,0.553,0.027,1.105,0.064,1.657
		c0.033,0.507,0.096,1.002,0.347,1.457c0.092,0.168,0.164,0.35,0.221,0.532c0.125,0.39,0.28,0.763,0.466,1.13
		c0.173,0.343,0.315,0.701,0.534,1.021c0.066,0.097,0.101,0.217,0.145,0.328c0.079,0.202,0.145,0.408,0.235,0.605
		c0.129,0.284,0.245,0.58,0.42,0.835c0.178,0.26,0.34,0.525,0.454,0.816c0.134,0.342,0.326,0.635,0.599,0.885
		c0.121,0.111,0.193,0.274,0.304,0.399c0.398,0.45,0.757,0.933,1.197,1.347c0.403,0.38,0.745,0.814,1.069,1.264
		c0.14,0.194,0.293,0.381,0.446,0.565c0.367,0.445,0.775,0.853,1.15,1.291c0.298,0.347,0.561,0.72,0.868,1.057
		c0.097,0.106,0.18,0.255,0.302,0.304c0.318,0.126,0.45,0.425,0.668,0.641c0.227,0.224,0.405,0.484,0.506,0.782
		c0.113,0.333,0.318,0.589,0.56,0.826c0.051,0.05,0.116,0.088,0.164,0.142c0.134,0.148,0.22,0.31,0.161,0.524
		c-0.057,0.209-0.109,0.424-0.053,0.641c0.121,0.468,0.155,0.945,0.177,1.425c0.039,0.841,0.069,1.684,0.156,2.521
		c0.063,0.606,0.041,1.2-0.041,1.797c-0.052,0.383-0.077,0.766-0.016,1.15c0.015,0.094,0.012,0.191,0.011,0.287
		c-0.006,0.649-0.013,1.299-0.022,1.948c-0.002,0.144,0.011,0.297-0.033,0.43c-0.149,0.467-0.105,0.954-0.173,1.427
		c-0.041,0.284-0.031,0.576-0.035,0.864c-0.002,0.095,0.013,0.192,0.039,0.284c0.172,0.61,0.233,1.225,0.091,1.85
		c-0.011,0.047-0.02,0.096-0.017,0.143c0.035,0.555-0.064,1.103-0.079,1.655c-0.025,0.868-0.194,1.718-0.284,2.578
		c-0.002,0.023-0.004,0.049-0.012,0.07c-0.094,0.258-0.081,0.52-0.023,0.781c0.035,0.158-0.002,0.29-0.133,0.382
		c-0.139,0.097-0.179,0.231-0.135,0.378c0.17,0.571,0.108,1.152,0.024,1.718c-0.017,0.119-0.029,0.238-0.041,0.358h2.134
		c0.05-0.355,0.104-0.709,0.141-1.065c0.066-0.621,0.093-1.248,0.169-1.867c0.117-0.955,0.258-1.907,0.288-2.87
		c0.002-0.072,0.014-0.144,0.021-0.215c0.07-0.742,0.145-1.484,0.211-2.226c0.066-0.743,0.114-1.487,0.19-2.228
		c0.069-0.67,0.169-1.336,0.252-2.005c0.053-0.429,0.107-0.86,0.151-1.291c0.067-0.67,0.119-1.342,0.189-2.012
		c0.106-1.029,0.208-2.059,0.244-3.092c0.014-0.384-0.014-0.77,0-1.154c0.011-0.339-0.001-0.673-0.077-1.005
		c-0.087-0.377-0.118-0.759-0.125-1.145c-0.002-0.094-0.009-0.192-0.035-0.282c-0.266-0.91-0.654-1.756-1.283-2.478
		c-0.126-0.145-0.241-0.301-0.348-0.46c-0.458-0.681-1.007-1.288-1.523-1.922c-0.166-0.204-0.359-0.388-0.549-0.571
		c-0.608-0.585-1.188-1.197-1.708-1.858c-0.582-0.74-1.223-1.427-1.91-2.064c-0.604-0.559-1.106-1.206-1.657-1.809
		c-0.079-0.087-0.137-0.197-0.198-0.3c-0.321-0.537-0.634-1.078-0.962-1.611c-0.254-0.412-0.441-0.852-0.605-1.305
		c-0.221-0.61-0.422-1.227-0.703-1.816c-0.134-0.281-0.217-0.586-0.334-0.877c-0.145-0.361-0.215-0.737-0.255-1.122
		c-0.08-0.766-0.147-1.533-0.31-2.287c-0.036-0.164-0.064-0.331-0.079-0.499c-0.05-0.578-0.168-1.142-0.318-1.701
		c-0.108-0.398-0.151-0.802-0.159-1.214c-0.01-0.48-0.029-0.961-0.105-1.438c-0.045-0.282-0.031-0.575-0.019-0.863
		c0.021-0.48,0.058-0.961,0.095-1.44c0.023-0.288,0.06-0.574,0.087-0.861c0.032-0.335,0.083-0.671,0.083-1.005
		c0.001-0.723-0.011-1.444,0.136-2.157c0.01-0.047,0.009-0.096,0.011-0.144c0.018-0.511,0.149-0.999,0.322-1.475
		c0.172-0.475,0.356-0.945,0.544-1.414c0.595-1.474,1.072-2.986,1.479-4.521c0.111-0.418,0.22-0.838,0.406-1.232
		c0.256-0.547,0.525-1.074,1.052-1.429c0.416-0.28,0.647-0.707,0.768-1.187c0.066-0.261,0.161-0.505,0.298-0.732
		c0.112-0.186,0.195-0.379,0.259-0.588c0.055-0.18,0.164-0.347,0.265-0.509c0.032-0.051,0.116-0.07,0.181-0.105
		c0.057,0.392,0.056,0.428-0.021,0.645c-0.065,0.181-0.177,0.358-0.187,0.541c-0.023,0.414-0.153,0.8-0.235,1.199
		c-0.029,0.141-0.07,0.286-0.062,0.427c0.023,0.449-0.113,0.851-0.313,1.243c-0.076,0.15-0.14,0.306-0.198,0.465
		c-0.155,0.429-0.315,0.857-0.384,1.312c-0.096,0.641-0.147,1.286-0.271,1.924c-0.087,0.45-0.181,0.894-0.304,1.334
		c-0.192,0.696-0.345,1.4-0.414,2.12c-0.054,0.575-0.146,1.144-0.254,1.711c-0.095,0.496-0.14,1.001-0.216,1.5
		c-0.034,0.224,0.023,0.429,0.096,0.633c0.011,0.032,0.079,0.068,0.117,0.064c0.094-0.012,0.195-0.028,0.275-0.073
		c0.338-0.194,0.603-0.469,0.827-0.787c0.115-0.163,0.179-0.336,0.168-0.538c-0.032-0.582,0.071-1.154,0.176-1.719
		c0.185-0.993,0.416-1.977,0.633-2.964c0.025-0.117,0.089-0.224,0.122-0.339c0.157-0.555,0.323-1.108,0.46-1.668
		c0.074-0.301,0.117-0.612,0.159-0.918c0.065-0.478,0.139-0.95,0.275-1.414c0.027-0.092,0.058-0.188,0.053-0.281
		c-0.011-0.246,0.104-0.473,0.113-0.706c0.011-0.28,0.148-0.502,0.236-0.748C14.819,7,14.925,6.658,14.942,6.293
		c0.002-0.031,0.039-0.059,0.06-0.09c0.148,0.147,0.204,0.328,0.217,0.524c0.028,0.432,0.041,0.864,0.079,1.295
		c0.048,0.557-0.015,1.107-0.118,1.649c-0.122,0.641-0.139,1.291-0.212,1.935c-0.058,0.522-0.007,1.056-0.019,1.583
		c-0.01,0.408-0.005,0.823-0.074,1.223c-0.082,0.477-0.112,0.955-0.143,1.435c-0.004,0.072,0.021,0.156-0.007,0.215
		c-0.177,0.357-0.109,0.758-0.208,1.129c-0.049,0.185-0.09,0.384-0.072,0.57c0.041,0.435-0.006,0.865-0.017,1.297
		c-0.004,0.143,0.013,0.288,0.031,0.431c0.101,0.834,0.199,1.669,0.19,2.512c-0.001,0.093,0.015,0.193,0.052,0.276
		c0.024,0.053,0.1,0.105,0.16,0.115c0.066,0.012,0.139-0.027,0.209-0.04c0.301-0.055,0.528-0.215,0.697-0.467
		c0.014-0.019,0.032-0.036,0.049-0.053c0.233-0.258,0.361-0.553,0.351-0.91c-0.016-0.529-0.001-1.059-0.026-1.587
		c-0.014-0.29-0.012-0.577,0.022-0.864c0.079-0.671,0.086-1.344,0.1-2.018c0.019-0.89,0.063-1.778,0.098-2.668
		c0.002-0.048,0.004-0.098,0.019-0.143c0.109-0.326,0.083-0.666,0.107-1.001c0.014-0.192,0.017-0.386,0.05-0.574
		c0.084-0.474,0.177-0.946,0.279-1.416c0.03-0.137,0.101-0.265,0.156-0.403c0.058,0.04,0.109,0.057,0.127,0.091
		c0.142,0.254,0.256,0.519,0.258,0.816c0.002,0.484,0.091,0.957,0.212,1.421c0.082,0.311,0.107,0.618,0.045,0.928
		c-0.099,0.482-0.094,0.954,0.052,1.426c0.064,0.207,0.091,0.422,0.05,0.642c-0.137,0.743-0.077,1.486,0.015,2.228
		c0.023,0.194,0.028,0.382-0.025,0.572c-0.058,0.207-0.059,0.426-0.149,0.629c-0.057,0.128-0.071,0.278-0.087,0.42
		c-0.048,0.457-0.025,0.911,0.077,1.361c0.043,0.186,0.068,0.378,0.099,0.567c0.05,0.308,0.095,0.617,0.148,0.925
		c0.058,0.331,0.142,0.658,0.177,0.99c0.035,0.321,0.215,0.583,0.297,0.884c0.069,0.254,0.165,0.502,0.257,0.75
		c0.145,0.393,0.187,0.8,0.112,1.207c-0.041,0.219-0.037,0.429-0.02,0.645c0.036,0.456,0.103,0.908,0.219,1.352
		c0.03,0.116,0.094,0.239,0.077,0.35c-0.064,0.411,0.059,0.814,0.024,1.223c-0.027,0.316,0.039,0.617,0.134,0.92
		c0.13,0.411,0.348,0.794,0.386,1.234c0.003,0.045,0.037,0.088,0.06,0.13c0.194,0.359,0.331,0.745,0.509,1.112
		c0.157,0.324,0.322,0.646,0.515,0.949c0.143,0.224,0.279,0.446,0.369,0.698c0.171,0.48,0.417,0.917,0.745,1.308
		c0.091,0.109,0.171,0.233,0.224,0.364c0.224,0.548,0.593,0.984,1.026,1.375c0.089,0.08,0.218,0.134,0.272,0.232
		c0.169,0.301,0.447,0.502,0.645,0.776c0.112,0.154,0.25,0.292,0.395,0.416c0.42,0.359,0.831,0.728,1.291,1.04
		c0.277,0.188,0.541,0.396,0.782,0.636c0.151,0.151,0.33,0.288,0.518,0.39c0.527,0.287,1.034,0.613,1.589,0.851
		c0.553,0.237,1.111,0.465,1.582,0.853c0.055,0.045,0.119,0.083,0.186,0.111c0.659,0.288,1.129,0.808,1.6,1.321
		c0.211,0.231,0.405,0.476,0.544,0.761c0.136,0.28,0.244,0.574,0.429,0.83c0.052,0.071,0.061,0.179,0.073,0.272
		c0.016,0.118,0.025,0.24,0.02,0.36c-0.031,0.749,0.16,1.482,0.149,2.229c-0.002,0.118,0.019,0.242,0.055,0.356
		c0.102,0.327,0.111,0.662,0.108,1c-0.002,0.144-0.008,0.291,0.015,0.433c0.034,0.212,0.064,0.434,0.223,0.599
		c0.109,0.112,0.154,0.248,0.166,0.39c0.026,0.311,0.049,0.624,0.044,0.935c-0.003,0.199,0.014,0.381,0.123,0.551
		c0.08,0.124,0.092,0.264,0.103,0.412c0.053,0.67,0.001,1.346,0.107,2.013c0.022,0.142,0.036,0.288,0.023,0.43
		c-0.036,0.39,0.025,0.771,0.105,1.146c0.101,0.479,0.1,0.953,0.034,1.435c-0.059,0.428-0.109,0.86-0.066,1.294
		c0.029,0.288,0.018,0.574,0.001,0.864c-0.024,0.431-0.02,0.864-0.03,1.296c-0.002,0.098-0.002,0.201,0.07,0.27
		c0.157,0.149,0.164,0.322,0.144,0.525c-0.033,0.356-0.037,0.715-0.082,1.072c-0.084,0.667-0.152,1.336-0.146,2.01
		c0,0.024-0.003,0.049-0.002,0.072c0.008,0.148-0.031,0.279-0.109,0.408c-0.129,0.212-0.178,0.443-0.117,0.693
		c0.016,0.067,0.028,0.148,0.007,0.211c-0.092,0.284-0.059,0.576-0.044,0.86c0.017,0.314,0,0.621-0.028,0.931
		c-0.017,0.19-0.06,0.379-0.015,0.574c0.096,0.429,0.075,0.859-0.011,1.288c-0.028,0.14-0.045,0.288-0.033,0.429
		c0.014,0.163,0.039,0.324,0.061,0.486h2.191c0.011-0.627,0.034-1.254,0.097-1.88c0.032-0.311,0.025-0.625,0.036-0.938
		c0.017-0.505,0.032-1.01,0.052-1.515c0.022-0.529,0.049-1.057,0.075-1.586c0.055-1.13,0.114-2.26,0.165-3.389
		c0.011-0.222,0.067-0.426,0.164-0.622c0.034-0.067,0.098-0.081,0.166-0.081c0-0.006,0.001-0.011,0.001-0.016l-0.011-0.012
		c-0.01-0.011-0.021-0.023-0.021-0.023s0.011,0.012,0.021,0.023c0.004,0.005,0.01,0.011,0.011,0.011
		c0.004,0.002,0.013,0.015,0.013,0.015c-0.005,0-0.009,0.002-0.015,0.002c-0.02,0.307-0.049,0.612-0.062,0.919
		c-0.002,0.061,0.039,0.137,0.083,0.184c0.075,0.077,0.1,0.166,0.092,0.262c-0.025,0.312-0.047,0.625-0.088,0.933
		c-0.042,0.311-0.097,0.617-0.002,0.928c0.026,0.086-0.001,0.189-0.006,0.284c-0.013,0.24-0.031,0.48-0.039,0.721
		c-0.016,0.506,0.021,1.007,0.184,1.493c0.045,0.134,0.066,0.284,0.062,0.425c-0.015,0.583,0.11,1.148,0.205,1.718
		c0.118,0.711,0.227,1.423,0.191,2.144h2.657c-0.043-0.569-0.113-1.135-0.22-1.699c-0.076-0.401-0.16-0.803-0.202-1.209
		c-0.069-0.669-0.162-1.336-0.19-2.011c-0.025-0.6-0.113-1.198-0.163-1.797c-0.055-0.672-0.131-1.343-0.139-2.016
		c-0.015-1.202,0.002-2.405,0.027-3.608c0.023-1.083,0.023-2.165-0.066-3.245c-0.025-0.312-0.041-0.625-0.05-0.937
		c-0.058-1.973-0.11-3.946-0.011-5.918c0.024-0.477,0.091-0.96,0.202-1.424c0.174-0.73,0.501-1.4,0.945-2.009
		c0.113-0.156,0.216-0.318,0.32-0.48c0.26-0.404,0.512-0.815,0.78-1.214c0.188-0.28,0.399-0.544,0.662-0.759
		c0.223-0.183,0.444-0.369,0.67-0.549c0.921-0.733,1.846-1.464,2.766-2.199c0.245-0.196,0.497-0.375,0.781-0.512
		c0.194-0.093,0.399-0.196,0.543-0.348c0.205-0.215,0.45-0.356,0.695-0.507c0.448-0.276,0.918-0.523,1.27-0.932
		c0.047-0.054,0.105-0.1,0.162-0.143c0.751-0.561,1.508-1.114,2.25-1.688c0.303-0.233,0.638-0.45,0.839-0.782
		c0.152-0.253,0.339-0.459,0.549-0.658c0.403-0.385,0.731-0.829,0.971-1.333c0.404-0.85,0.734-1.725,0.92-2.652
		c0.08-0.403,0.083-0.815,0.159-1.214c0.1-0.523,0.149-1.047,0.181-1.575c0.047-0.769,0.145-1.53,0.288-2.287
		c0.093-0.495,0.169-0.995,0.222-1.496s0.076-1.007,0.1-1.511c0.041-0.842,0.163-1.675,0.245-2.513
		c0.014-0.141,0.047-0.285,0.158-0.395c0.026,0.032,0.064,0.059,0.074,0.095c0.12,0.42,0.152,0.849,0.165,1.284
		c0.013,0.432-0.026,0.868,0.07,1.295c0.07,0.312,0.062,0.621,0.017,0.932c-0.074,0.523-0.171,1.041-0.361,1.538
		c-0.1,0.262-0.029,0.392,0.227,0.504c0.27,0.117,0.558,0.155,0.843,0.152c0.31-0.002,0.621-0.061,0.93-0.097
		c0.142-0.017,0.247-0.141,0.252-0.304c0.009-0.313,0.009-0.625,0.017-0.938c0.005-0.192-0.002-0.388,0.031-0.575
		c0.123-0.692,0.13-1.389,0.131-2.087c0-0.433,0.032-0.864,0.076-1.296c0.056-0.549,0.067-1.104,0.074-1.657
		c0.01-0.842-0.015-1.684,0-2.526c0.012-0.699-0.017-1.393-0.089-2.089c-0.045-0.43-0.052-0.864-0.071-1.297
		c-0.003-0.07,0.017-0.14,0.045-0.347c0.1,0.286,0.208,0.431,0.231,0.624c0.028,0.238,0.07,0.475,0.101,0.713
		c0.009,0.07,0.021,0.148,0,0.211c-0.092,0.262-0.039,0.525-0.023,0.787c0.023,0.384,0.073,0.766,0.088,1.15
		c0.036,0.937,0.058,1.875,0.09,2.813c0.02,0.601,0.062,1.202,0.07,1.803c0.006,0.409-0.018,0.817,0.079,1.22
		c0.028,0.114,0.011,0.239,0.012,0.359c0.011,0.675,0.139,1.335,0.207,1.991c0.267,0.106,0.507,0.207,0.751,0.298
		c0.066,0.024,0.141,0.029,0.212,0.029c0.144,0,0.288-0.008,0.433-0.014c0.024-0.001,0.048-0.005,0.071-0.007
		c0.133-0.011,0.237-0.119,0.209-0.237c-0.087-0.378-0.092-0.762-0.105-1.147c-0.024-0.769,0.018-1.538-0.023-2.306
		c-0.02-0.384-0.008-0.77-0.016-1.154c-0.008-0.408,0.011-0.813-0.043-1.223c-0.05-0.376,0.049-0.766-0.061-1.144
		c0.025-0.314-0.032-0.624-0.039-0.933c-0.006-0.314-0.034-0.624-0.066-0.933c-0.096-0.933-0.213-1.862-0.408-2.783
		c-0.185-0.869-0.373-1.74-0.439-2.631c-0.037-0.504-0.101-1.005-0.151-1.508C59.17,8.677,59.17,8.58,59.178,8.485
		c0.036-0.456,0.076-0.911,0.113-1.368c0.012-0.148,0.064-0.28,0.152-0.398c0.011-0.015,0.034-0.03,0.05-0.029
		c0.022,0.002,0.055,0.014,0.063,0.031c0.05,0.106,0.12,0.211,0.139,0.325C59.794,7.638,59.93,8.219,60.09,8.8
		c0.204,0.738,0.416,1.477,0.517,2.244c0.05,0.381,0.142,0.757,0.13,1.144c-0.019,0.651,0.096,1.293,0.143,1.939
		c0.027,0.379,0.126,0.758,0.233,1.126c0.096,0.327,0.143,0.653,0.149,0.992c0.004,0.239,0.019,0.484,0.079,0.715
		c0.062,0.237,0.086,0.477,0.08,0.714c-0.015,0.557,0.045,1.103,0.13,1.651c0.053,0.335,0.066,0.679-0.019,1.005
		c-0.191,0.73-0.243,1.469-0.233,2.217c0.005,0.361-0.008,0.722-0.101,1.075c-0.037,0.142,0.018,0.24,0.149,0.282
		c0.206,0.067,0.402,0.15,0.595,0.251c0.235,0.123,0.5,0.173,0.765,0.183c0.297,0.011,0.459-0.149,0.443-0.43
		c-0.01-0.167-0.044-0.332-0.064-0.498c-0.03-0.237-0.086-0.476-0.08-0.714c0.015-0.553,0.049-1.106,0.096-1.658
		c0.051-0.599,0.145-1.195,0.183-1.794c0.058-0.911,0.165-1.82,0.188-2.734c0.016-0.625,0.05-1.249,0.087-1.874
		c0.052-0.864,0.114-1.729,0.176-2.593c0.002-0.042,0.041-0.083,0.062-0.122c0.015,0.014,0.038,0.026,0.043,0.042
		c0.117,0.444,0.051,0.908,0.147,1.356c0.034,0.162,0.011,0.336,0.012,0.505c0.007,0.649,0.014,1.298,0.02,1.946
		c0.001,0.096-0.007,0.195,0.011,0.288c0.099,0.495,0.012,1.011,0.175,1.5c0.029,0.087,0.002,0.19,0.006,0.287
		c0.007,0.169,0.003,0.339,0.031,0.504c0.066,0.385,0.037,0.768,0,1.15c-0.037,0.383-0.063,0.77-0.134,1.147
		c-0.076,0.398-0.055,0.817-0.256,1.19c-0.032,0.061-0.041,0.14-0.04,0.211c0.004,0.648-0.1,1.291-0.068,1.943
		c0.022,0.454-0.029,0.911-0.06,1.368c-0.019,0.288-0.058,0.574-0.096,0.86c-0.083,0.619-0.13,1.243-0.373,1.831
		c-0.082,0.198-0.132,0.412-0.176,0.625c-0.153,0.753-0.297,1.508-0.446,2.262c-0.037,0.189-0.105,0.374-0.118,0.565
		c-0.037,0.531-0.162,1.039-0.306,1.551c-0.112,0.396-0.235,0.779-0.426,1.143c-0.181,0.344-0.29,0.709-0.337,1.097
		c-0.051,0.431-0.132,0.856-0.305,1.258c-0.037,0.086-0.047,0.185-0.062,0.278c-0.03,0.18-0.122,0.317-0.292,0.379
		c-0.141,0.052-0.262,0.127-0.343,0.25c-0.213,0.321-0.434,0.634-0.745,0.872c-0.037,0.028-0.066,0.071-0.089,0.113
		c-0.191,0.344-0.484,0.593-0.77,0.851c-0.285,0.258-0.565,0.523-0.795,0.834c-0.147,0.198-0.33,0.357-0.53,0.485
		c-0.476,0.304-0.818,0.728-1.163,1.164c-0.386,0.489-0.774,0.977-1.249,1.393c-0.469,0.411-0.898,0.869-1.265,1.376
		c-0.34,0.467-0.727,0.894-1.115,1.318c-0.454,0.495-0.911,0.987-1.361,1.485c-0.297,0.33-0.486,0.714-0.527,1.163
		c-0.027,0.287-0.054,0.574-0.006,0.861c0.019,0.118,0.047,0.244,0.025,0.358c-0.091,0.476-0.023,0.965-0.1,1.437
		c-0.087,0.548-0.015,1.107-0.131,1.651c-0.015,0.069-0.006,0.144,0,0.215c0.049,0.574-0.04,1.156,0.126,1.722
		c0.014,0.045,0.011,0.096,0.012,0.143c0.011,0.697,0.047,1.391,0.193,2.076c0.025,0.117,0.036,0.24,0.032,0.359
		c-0.032,0.724,0.122,1.438,0.111,2.161c-0.002,0.095,0.021,0.191,0.038,0.286c0.106,0.591,0.22,1.18,0.32,1.772
		c0.069,0.403,0.128,0.808,0.181,1.214c0.081,0.62,0.151,1.241,0.23,1.861c0.052,0.405,0.109,0.809,0.166,1.214
		c0.03,0.213,0.071,0.418,0.151,0.625c0.09,0.237,0.185,0.498,0.089,0.772c-0.021,0.06,0.019,0.139,0.028,0.21
		c0.024,0.19,0.069,0.38,0.066,0.57c-0.006,0.397,0.078,0.781,0.293,1.099c0.232,0.34,0.297,0.702,0.302,1.088
		c0.006,0.504,0.081,1.008-0.002,1.513c-0.006,0.038-0.002,0.078-0.001,0.117h2.19c-0.032-0.196-0.067-0.39-0.098-0.587
		c-0.092-0.594-0.167-1.191-0.239-1.788c-0.028-0.237-0.034-0.477-0.064-0.716c-0.095-0.739-0.213-1.477-0.227-2.225
		c-0.002-0.143-0.014-0.289-0.04-0.43c-0.161-0.875-0.23-1.762-0.348-2.644c-0.034-0.261-0.02-0.527-0.051-0.789
		c-0.084-0.716-0.151-1.433-0.177-2.154c-0.006-0.169-0.006-0.337-0.023-0.505c-0.056-0.526-0.105-1.052-0.07-1.583
		c0.005-0.071,0.016-0.147,0.001-0.215c-0.098-0.45-0.07-0.905-0.066-1.359c0.002-0.19-0.02-0.381-0.048-0.569
		c-0.022-0.146-0.034-0.287,0.032-0.422c0.097-0.2,0.138-0.415,0.124-0.631c-0.014-0.221,0.034-0.43,0.067-0.643
		c0.054-0.356,0.101-0.714,0.154-1.07c0.025-0.166,0.051-0.333,0.085-0.497c0.164-0.8,0.316-1.603,0.399-2.417
		c0.019-0.191,0.058-0.382,0.069-0.573c0.019-0.3,0.128-0.564,0.302-0.8c0.243-0.328,0.5-0.647,0.752-0.968
		c0.179-0.227,0.366-0.446,0.54-0.676c0.333-0.442,0.649-0.895,0.989-1.332c0.518-0.664,1.048-1.318,1.576-1.974
		c0.621-0.773,1.327-1.454,2.1-2.076c0.43-0.346,0.823-0.74,1.218-1.127c0.206-0.202,0.387-0.427,0.625-0.597
		c0.073-0.052,0.129-0.141,0.17-0.224c0.096-0.193,0.186-0.39,0.266-0.59c0.099-0.245,0.16-0.506,0.28-0.74
		c0.347-0.673,0.407-1.426,0.621-2.135c0-0.387,0.093-0.762,0.151-1.142c0.101-0.665,0.178-1.334,0.358-1.986
		c0.038-0.139,0.057-0.284,0.077-0.425c0.127-0.903,0.286-1.801,0.371-2.708c0.052-0.555,0.211-1.084,0.391-1.606
		c0.159-0.46,0.191-0.93,0.201-1.413c0.01-0.503-0.039-1.005,0.006-1.51c0.045-0.502,0.024-1.01,0.05-1.515
		c0.028-0.527,0.093-1.05,0.082-1.581c-0.01-0.432,0.023-0.865,0.046-1.297c0.023-0.432,0.058-0.862,0.087-1.293
		c-0.116-0.433,0.028-0.856,0.058-1.283C65.907,18.969,65.918,18.919,65.91,18.873z M11.425,6.084
		c-0.174,0.776-0.175,0.776-0.6,1.448c-0.063,0.1-0.134,0.194-0.203,0.291c0.134-0.705,0.413-1.362,0.695-2.018
		c0.007-0.017,0.055-0.037,0.058-0.034c0.026,0.031,0.061,0.065,0.064,0.1C11.446,5.941,11.442,6.014,11.425,6.084z M13.125,1.85
		c-0.004,0.021-0.023,0.043-0.041,0.058c-0.275,0.235-0.526,0.492-0.758,0.768c-0.017,0.02-0.072,0.015-0.108,0.011
		c-0.009-0.001-0.018-0.041-0.02-0.064C12.195,2.6,12.2,2.575,12.206,2.486c0.096-0.23,0.21-0.519,0.338-0.803
		c0.038-0.084,0.114-0.152,0.176-0.225c0.053-0.062,0.202-0.057,0.258,0.015c0.058,0.075,0.112,0.155,0.153,0.24
		C13.149,1.75,13.134,1.805,13.125,1.85z M57.567,11.19c-0.063,0.02-0.159-0.02-0.169-0.074c-0.009-0.045-0.025-0.089-0.028-0.135
		c-0.005-0.07-0.001-0.139-0.001-0.336c-0.007,0.058-0.002-0.01,0.011-0.077c0.003-0.017,0.028-0.042,0.045-0.043
		c0.019-0.001,0.054,0.015,0.059,0.032c0.053,0.176,0.103,0.352,0.151,0.529C57.649,11.139,57.623,11.172,57.567,11.19z"/>
</g>
</svg>
