<?xml version="1.0" encoding="utf-8"?>
<!-- Generator: Adobe Illustrator 17.0.0, SVG Export Plug-In . SVG Version: 6.00 Build 0)  -->
<!DOCTYPE svg PUBLIC "-//W3C//DTD SVG 1.1//EN" "http://www.w3.org/Graphics/SVG/1.1/DTD/svg11.dtd">
<svg version="1.1" id="Layer_1" xmlns="http://www.w3.org/2000/svg" xmlns:xlink="http://www.w3.org/1999/xlink" x="0px" y="0px"
	 width="72px" height="72px" viewBox="0 0 72 72" enable-background="new 0 0 72 72" xml:space="preserve">
<path fill="#FFFFFF" d="M67.151,53.702c-2.421-1.781-4.75-3.562-5.618-5.937c-1.05-2.74-1.781-5.663-2.512-8.632
	c-0.32-1.233-0.594-2.421-0.913-3.654c-0.365-1.279-0.685-2.375-0.959-3.562c-0.594-2.421-1.188-4.978-2.421-7.399
	c-0.32-0.594-0.685-1.187-1.096-1.736c-0.183-0.274-0.457-0.548-0.685-0.822c-0.228-0.274-0.457-0.457-0.685-0.685
	c-0.913-0.868-1.918-1.736-2.877-2.512c-1.462-1.187-3.014-2.329-4.522-3.425c1.781-1.325,3.517-2.695,5.252-4.111
	c1.188-1.005,2.375-2.01,3.517-3.106c0.594-0.548,1.142-1.096,1.69-1.69l0.411-0.457l0.137-0.183l0.183-0.228
	c0.137-0.137,0.228-0.274,0.365-0.411c0.457-0.594,0.868-1.187,1.142-1.736c0.274-0.548,0.365-1.096,0.365-1.507
	c0-0.457-0.137-0.868-0.457-1.279c-0.365-0.457-0.731-0.594-1.142-0.685c-0.411-0.091-0.959-0.046-1.553,0.137
	c-0.639,0.183-1.325,0.502-1.964,0.868l-0.868,0.502l-0.502,0.32c-0.685,0.411-1.37,0.822-2.01,1.279
	c-3.197,2.101-6.212,4.385-9.226,6.668c-0.091,0.046-0.137,0.091-0.228,0.183c-0.228-0.274-0.502-0.502-0.822-0.731
	c-0.731-0.411-1.507-0.822-2.421-1.005c-0.913-0.228-1.827-0.228-2.695-0.091c-0.868,0.137-1.644,0.365-2.375,0.594
	c-0.731,0.274-1.416,0.548-2.101,0.822c-2.466,1.142-5.298,1.827-8.038,3.334c-1.279,0.685-2.603,1.644-3.562,3.06
	c-0.274,0.32-0.411,0.776-0.594,1.142c-0.137,0.365-0.228,0.685-0.365,1.005c-0.228,0.639-0.411,1.325-0.639,1.964
	c-0.365,1.325-0.731,2.649-0.959,4.019c-0.137,0.685-0.228,1.416-0.274,2.147v0.594c0,0.183,0,0.411,0.046,0.594
	c0,0.183,0.046,0.457,0.137,0.776c0.091,0.274,0.228,0.548,0.365,0.776c0.183,0.228,0.365,0.411,0.594,0.594l-0.228,0.046
	l-0.913,0.685c-0.183,0.137-0.548,0.411-0.776,0.685c0,0,0,0.046-0.046,0.046c-0.32,0.046-0.639,0.091-0.959,0.137
	c-1.233,0.274-2.329,0.731-3.38,1.233c-0.502,0.274-1.05,0.548-1.553,0.868c-0.502,0.32-1.005,0.639-1.507,1.096
	c-2.01,1.873-2.832,4.339-3.334,6.44c-0.274,1.05,0.228,1.964,1.05,2.192c0,0.183,0.137,0.365,0.365,0.411
	c1.736,0.183,3.562,0.365,5.481,0c0.959-0.183,1.873-0.548,2.74-1.005l0.32-0.183c0.137-0.091,0.228-0.137,0.32-0.228
	c0.228-0.137,0.411-0.32,0.594-0.457c0.365-0.32,0.685-0.639,1.05-1.005c0.639-0.685,1.233-1.416,1.781-2.238
	c0.365-0.594,0.731-1.188,1.005-1.873c0.411-0.228,0.822-0.548,1.05-0.685l1.142-0.822l1.644-1.233l1.37,5.024
	c0.548,1.827,1.05,3.745,2.192,5.663c0.274,0.457,0.639,0.959,1.096,1.37c0.228,0.228,0.502,0.411,0.822,0.594
	c0.32,0.183,0.731,0.32,1.096,0.32c0.228,0,0.457,0,0.639-0.046c-0.046,0.776-0.091,1.553-0.091,2.329
	c0,0.594,0.046,1.233,0.137,1.827c0.091,0.594,0.183,1.233,0.32,1.827c0.274,1.142,0.639,2.329,1.142,3.425
	c0.959,2.238,2.512,4.293,4.613,5.663c0.274,0.183,0.502,0.365,0.776,0.502c0.274,0.137,0.548,0.32,0.822,0.411
	c0.594,0.274,1.05,0.457,1.553,0.685c1.005,0.457,2.01,0.913,2.969,1.462c3.928,2.01,7.673,4.567,11.327,7.125l0,0
	c0.959,0.685,1.37,0.137,0.457-0.639l0,0c-3.471-2.877-7.034-5.709-10.962-8.038c-0.959-0.594-1.964-1.142-3.014-1.69
	c-1.05-0.548-1.964-0.959-2.786-1.599c-1.644-1.233-2.832-2.923-3.562-4.887c-0.365-0.959-0.685-1.964-0.868-3.014
	c-0.137-0.548-0.137-1.005-0.228-1.507c-0.046-0.502-0.091-1.005-0.046-1.553c0-2.055,0.502-4.202,0.822-6.531
	c0.365-2.284,0.502-4.841-0.137-7.308c-0.137-0.594-0.365-1.187-0.548-1.781c-0.228-0.548-0.457-1.096-0.731-1.644
	c-0.502-1.05-1.05-2.055-1.507-3.06c-0.594-1.187-1.096-2.375-1.37-3.517c-0.228-1.005-0.091-1.964,0.411-2.649
	c0.228-0.365,0.594-0.594,0.959-0.776c0.365-0.137,0.776-0.183,1.187-0.183c0.822,0.137,1.599,0.685,2.147,1.644
	c1.279,2.147,2.147,4.75,3.243,7.353c0.548,1.279,1.187,2.649,1.964,3.928c0.776,1.233,1.69,2.421,2.603,3.517
	c1.827,2.055,3.791,3.014,4.385,2.466c0.639-0.594-0.457-2.558-2.101-4.476c-0.868-1.005-1.644-2.01-2.329-3.106
	c-0.685-1.096-1.233-2.192-1.736-3.471c-1.005-2.375-1.873-4.978-3.288-7.49c2.695-1.873,5.389-3.745,8.038-5.755
	c1.37,1.37,2.786,2.74,4.156,4.111c0.868,0.868,1.69,1.781,2.512,2.695c0.183,0.228,0.411,0.457,0.548,0.685
	c0.183,0.228,0.32,0.411,0.457,0.685c0.32,0.457,0.548,0.959,0.776,1.507c0.868,2.101,1.325,4.522,1.827,6.988
	c0.228,1.233,0.594,2.558,0.868,3.7L55.915,40c0.731,2.969,1.507,5.983,2.603,8.952c0.32,0.822,0.731,1.644,1.279,2.375
	c0.502,0.731,1.096,1.37,1.69,1.918c1.188,1.142,2.466,2.101,3.7,3.014c1.188,0.868,2.466,1.005,3.014,0.365
	C68.887,55.849,68.338,54.524,67.151,53.702z M35.454,20.909c-0.137-0.183-0.274-0.365-0.411-0.548l-0.457-0.457
	c-0.137-0.183-0.32-0.32-0.502-0.457l-0.594-0.411c-0.091-0.046-0.183-0.091-0.274-0.137c2.923-2.329,5.846-4.659,8.769-6.897
	c2.969-2.238,5.983-4.476,9.089-6.531c0.639-0.411,1.279-0.822,1.918-1.187l0.594-0.365l0,0l0.046-0.046
	c0.046,0,0.046,0,0.046,0.046v0.046l0,0l0,0c0,0,0,0-0.046,0.046l-0.365,0.411c-0.502,0.548-1.005,1.096-1.507,1.644
	c-1.05,1.096-2.147,2.147-3.243,3.197C44.223,13.282,39.839,17.072,35.454,20.909z M12.069,40.503
	c-0.594,0.457-1.279,0.868-2.055,1.142c-1.187,0.457-2.512,0.639-3.882,0.822c0.228-0.228,0.411-0.548,0.457-0.913
	c0.228-1.005,0.548-1.964,0.913-2.786c0.183-0.411,0.411-0.822,0.685-1.187c0.137-0.183,0.274-0.365,0.411-0.502
	c0.137-0.137,0.32-0.365,0.411-0.411c0.594-0.502,1.507-1.096,2.375-1.507c0.868-0.457,1.781-0.822,2.649-1.005
	c0.091,0,0.137-0.046,0.228-0.046c0.137,0.228,0.228,0.411,0.32,0.594c0.046,0.091,0.091,0.183,0.183,0.32l0.32,0.457
	c0.091,0.137,0.183,0.228,0.274,0.32c-0.137,0.32-0.274,0.639-0.457,0.959c-0.365,0.685-0.822,1.37-1.325,2.055
	C13.12,39.452,12.617,40.092,12.069,40.503z M17.322,33.332L17.322,33.332L17.322,33.332l-0.137-0.183
	c-0.091-0.137-0.183-0.32-0.228-0.411l-0.046-0.091l0,0l0,0l0,0c0,0,0,0,0.091-0.091c0.228-0.228,0.594-0.502,0.913-0.776
	l0.868-0.822l1.69-1.644c1.644-1.599,3.243-3.243,4.796-4.933c0,0.457,0.091,0.913,0.183,1.37c0.091,0.457,0.274,0.913,0.411,1.325
	c-0.091,0.046-0.183,0.091-0.274,0.183L17.322,33.332z M29.699,35.753c0.502,1.918,0.457,3.974,0.183,6.166
	c-0.091,0.959-0.274,1.918-0.411,2.923c-0.274,0.091-0.457,0.046-0.594-0.046c-0.32-0.137-0.731-0.868-1.005-1.644
	c-0.594-1.599-0.913-3.471-1.462-5.435l-1.644-6.12l2.375-1.736C28.101,31.962,29.242,33.88,29.699,35.753z M28.603,18.717
	c-0.868,0.411-1.644,1.005-2.238,1.781c-0.502,0.639-0.776,1.37-0.959,2.147c-2.238,1.553-4.43,3.106-6.623,4.75l-0.091,0.091
	c-0.137,0.046-0.274,0.091-0.365,0.091c-0.183,0.046-0.411,0.046-0.411,0.046c-0.137,0-0.274-0.091-0.32-0.228
	c0-0.046-0.046-0.091,0-0.137c0,0,0-0.091,0-0.228c0-0.137,0-0.228,0-0.365l0.046-0.411c0.091-0.594,0.228-1.187,0.365-1.827
	c0.32-1.233,0.685-2.466,1.096-3.7c0.228-0.594,0.411-1.233,0.639-1.827l0.365-0.868c0.137-0.228,0.183-0.411,0.365-0.594
	c0.548-0.776,1.462-1.507,2.512-2.055c2.238-1.279,5.024-1.964,7.764-3.243c1.279-0.548,2.512-1.05,3.654-1.233
	c0.548-0.091,1.05-0.046,1.553,0.046c0.502,0.137,1.005,0.365,1.507,0.639c-2.101,1.644-4.202,3.288-6.257,4.933
	c-0.731,0.594-1.233,1.233-1.507,1.827C29.334,18.488,28.968,18.58,28.603,18.717z"/>
</svg>
