<?xml version="1.0" encoding="utf-8"?>
<!-- Generator: Adobe Illustrator 17.0.0, SVG Export Plug-In . SVG Version: 6.00 Build 0)  -->
<!DOCTYPE svg PUBLIC "-//W3C//DTD SVG 1.1//EN" "http://www.w3.org/Graphics/SVG/1.1/DTD/svg11.dtd">
<svg version="1.1" id="Layer_1" xmlns="http://www.w3.org/2000/svg" xmlns:xlink="http://www.w3.org/1999/xlink" x="0px" y="0px"
	 width="72px" height="72px" viewBox="0 0 72 72" enable-background="new 0 0 72 72" xml:space="preserve">
<path fill="#FFFFFF" d="M72.231,55.318c-0.048-1.205-0.145-2.362-0.193-3.471v-0.386v-0.386v-0.868v-1.735v-3.374v-6.893V24.467
	c0-4.339-0.723-7.906-1.639-7.906c0-0.193-0.241-0.386-0.675-0.434l0,0c-13.353-0.819-26.802-1.253-40.252-1.253H4.888
	c-1.928,0-3.519,0.723-3.519,1.639l0,0c-0.193,0-0.386,0.482-0.434,1.494l0,0c-0.241,7.472-0.627,14.944-0.819,22.464
	c-0.096,3.76-0.145,7.52-0.096,11.28c0,1.88,0.145,3.808,0.096,5.544v0.386v0.627c0,0.386,0.096,0.771,0.289,1.109
	c0.193,0.337,0.53,0.578,0.916,0.723c0.193,0.096,0.386,0.145,0.578,0.241l0.386,0.145c0.241,0.096,0.386,0.145,0.627,0.289
	c0.289,0.096,0.53,0.241,0.819,0.289c0.241,0.048,0.53,0.145,0.819,0.193l0.771,0.145c2.073,0.241,4.001,0.145,5.881,0.048
	c1.88-0.145,3.76-0.337,5.544-0.386l11.232,0.096c7.52,0.048,15.04,0.048,22.56,0.096h6.893h1.735c0.337,0,0.482,0,0.771,0
	l0.819,0.048c1.109,0.096,2.266,0.241,3.423,0.337c1.157,0.096,2.362,0.145,3.615,0.145c0.337,0,0.627,0,0.964-0.048
	c0.145,0,0.337-0.048,0.53-0.048c0.193-0.048,0.337-0.048,0.578-0.145l0.771-0.337c0.241-0.145,0.482-0.289,0.675-0.482
	c0.145-0.241,0.386-0.434,0.482-0.675c0.145-0.241,0.289-0.482,0.337-0.771c0.048-0.241,0.096-0.434,0.145-0.578
	c0.048-0.193,0.048-0.386,0.096-0.53c0.048-0.337,0.048-0.675,0.048-0.964C72.231,56.523,72.231,55.945,72.231,55.318z
	 M60.806,58.018l-0.916-0.096c-0.289-0.048-0.723-0.048-0.964-0.048h-1.735h-6.893c-7.52,0.048-15.04,0.048-22.56,0.096l-5.64,0.048
	l-2.796,0.048h-1.398H17.18h-0.771c-1.976,0.096-3.808,0.386-5.688,0.53c-1.832,0.193-3.664,0.289-5.351,0.145l-0.241-0.048
	c0.193-0.145,0.386-0.241,0.578-0.386l21.307-15.474c1.061,1.061,2.121,2.121,3.23,3.133c0.675,0.578,1.398,1.157,2.169,1.735
	c0.386,0.289,0.819,0.53,1.302,0.771c0.241,0.145,0.53,0.241,0.819,0.337l0.241,0.048l0.337,0.096l0.627,0.048
	c0.337-0.048,0.675-0.096,0.964-0.241c0.145-0.048,0.337-0.096,0.434-0.193l0.337-0.193c0.337-0.241,0.675-0.482,0.964-0.723
	c0.578-0.482,1.109-0.964,1.591-1.494l1.446-1.494c0.241-0.241,0.482-0.482,0.627-0.627l0.771-0.675l1.157-1.012
	c2.603,1.784,5.206,3.615,7.809,5.399c5.254,3.615,10.557,7.134,15.908,10.653c-0.145,0-0.289,0-0.434,0.048
	c-1.012,0.048-2.121-0.048-3.23-0.145C63.072,58.259,61.963,58.162,60.806,58.018z M1.61,17.284
	c0.578,0.578,1.784,0.964,3.182,0.964h24.585c13.449,0,26.899-0.434,40.252-1.253l0,0c0.048,0,0.096,0,0.145,0
	c-0.675,1.061-1.157,4.001-1.157,7.472v13.739v6.893v3.423v1.735v0.868v0.482v0.482c0.048,1.205,0.145,2.314,0.193,3.423
	c0,0.53,0.048,1.109,0,1.591c0,0.241-0.048,0.482-0.048,0.723c0,0.048,0,0.096,0,0.145c-5.062-4.097-10.22-8.099-15.378-12.1
	c-2.314-1.784-4.628-3.567-6.99-5.303l19.572-16.631c1.832-1.543,2.844-3.374,2.217-4.049c-0.578-0.675-2.555,0-4.387,1.543
	L40.897,40.905l-0.771,0.675c-0.337,0.289-0.578,0.578-0.868,0.819l-1.446,1.446c-0.482,0.482-0.964,0.916-1.398,1.302
	c-0.241,0.193-0.434,0.386-0.675,0.53l-0.096,0.048l0,0l0,0l0,0h-0.048c-0.096-0.048-0.241-0.096-0.386-0.145
	c-0.289-0.145-0.627-0.337-0.916-0.53c-0.627-0.434-1.302-0.916-1.928-1.446c-1.253-1.061-2.507-2.217-3.712-3.374
	c-1.205-1.205-2.41-2.41-3.615-3.615c-1.205-1.205-2.362-2.458-3.808-3.664c-5.303-4.387-10.653-8.725-16.004-12.967l0,0
	c-0.868-0.675-1.35-0.096-0.578,0.627l0,0c4.917,4.772,9.882,9.545,14.944,14.221c1.157,1.061,2.266,2.41,3.423,3.664
	c0.578,0.627,1.157,1.302,1.784,1.928L3.827,55.656c-0.482,0.337-0.916,0.723-1.302,1.109c-0.048-1.784-0.193-3.374-0.241-5.062
	c-0.193-3.712-0.289-7.472-0.337-11.184c-0.096-7.52-0.096-14.992-0.241-22.464l0,0C1.658,17.718,1.658,17.477,1.61,17.284z"/>
</svg>
