<?xml version="1.0" encoding="utf-8"?>
<!-- Generator: Adobe Illustrator 17.0.0, SVG Export Plug-In . SVG Version: 6.00 Build 0)  -->
<!DOCTYPE svg PUBLIC "-//W3C//DTD SVG 1.1//EN" "http://www.w3.org/Graphics/SVG/1.1/DTD/svg11.dtd">
<svg version="1.1" id="Layer_1" xmlns="http://www.w3.org/2000/svg" xmlns:xlink="http://www.w3.org/1999/xlink" x="0px" y="0px"
	 width="72px" height="72px" viewBox="0 0 72 72" enable-background="new 0 0 72 72" xml:space="preserve">
<g>
	<path fill="#FFFFFF" d="M71.702,33.404L71.702,33.404c-1.553-2.919-3.107-5.792-4.66-8.71l-2.33-4.355l-0.594-1.066
		c-0.137-0.278-0.32-0.648-0.456-1.019c-0.183-0.371-0.319-0.787-0.547-1.204c-0.137-0.232-0.229-0.417-0.412-0.649
		c-0.183-0.278-0.459-0.557-0.735-0.743c-0.276-0.14-0.553-0.234-0.83-0.282c-0.323-0.048-0.508-0.049-0.692-0.096
		c-0.416-0.002-0.785-0.005-1.155-0.007l-1.063,0.04l-0.462,0.043l-0.462-0.003l-4.202-0.117c-0.277-0.002-0.554-0.003-0.785-0.005
		c0.189-0.784,0.379-1.568,0.476-2.399c0.096-0.6,0.192-1.246,0.196-1.893c0.002-0.323,0.004-0.647-0.04-1.016
		c0.001-0.185-0.044-0.37-0.089-0.509c0-0.046,0.001-0.231-0.044-0.37l-0.044-0.416c-0.045-0.277-0.136-0.509-0.227-0.648
		c-0.138-0.139-0.321-0.325-0.598-0.419c-0.23-0.14-0.461-0.234-0.737-0.328c-0.23-0.094-0.553-0.142-0.784-0.143l-0.369-0.048
		l-0.277-0.002l-0.508-0.003c-0.323-0.002-0.647-0.004-0.924,0.041L47.469,7.12l-0.185-0.001l-0.139-0.001l-0.323-0.048
		c-0.554-0.049-1.154-0.145-1.8-0.149c-0.323-0.002-0.647-0.004-0.97-0.006c-0.185-0.001-0.37,0.044-0.601,0.089
		c-0.231,0.045-0.509,0.136-0.74,0.227c-0.139,0.045-0.139,0.045-0.185,0.091l-0.046,0c-0.046,0-0.093,0.046-0.185,0.045
		l-0.093,0.046c0,0-0.139,0.045-0.186,0.137c-0.093,0.046-0.186,0.137-0.278,0.229c-0.186,0.184-0.279,0.368-0.373,0.552
		c-0.047,0.138-0.094,0.277-0.095,0.415c-0.001,0.092-0.001,0.185,0.045,0.277c0,0.046-0.001,0.139-0.047,0.184l-0.047,0.092
		c-0.093,0.046-0.093,0.046,0,0l-0.002,0.369c-0.143,0.692-0.193,1.384-0.197,2.031c-0.007,1.155,0.079,2.217,0.166,3.234
		c-3.648-0.067-7.251-0.088-10.899-0.156c0.143-0.692,0.332-1.43,0.428-2.168c0.096-0.6,0.192-1.246,0.196-1.893
		c0.002-0.323,0.004-0.647-0.04-1.016c0.001-0.185-0.044-0.37-0.089-0.509c0-0.046,0.001-0.231-0.044-0.37l-0.044-0.416
		c-0.045-0.277-0.136-0.509-0.227-0.648c-0.138-0.139-0.321-0.325-0.598-0.419c-0.23-0.14-0.461-0.234-0.737-0.328
		c-0.23-0.094-0.553-0.142-0.784-0.143L27.98,6.822l-0.277-0.002l-0.508-0.003c-0.323-0.002-0.647-0.004-0.924,0.041l-0.878,0.041
		l-0.185-0.001l-0.139-0.001l-0.323-0.048c-0.554-0.049-1.154-0.145-1.8-0.149c-0.323-0.002-0.647-0.004-0.97-0.006
		c-0.185-0.001-0.37,0.044-0.601,0.089c-0.231,0.045-0.509,0.136-0.74,0.227c-0.139,0.045-0.139,0.045-0.185,0.091l-0.046,0
		c-0.046,0-0.093,0.046-0.185,0.045l-0.093,0.046c0,0-0.139,0.045-0.186,0.137c-0.093,0.046-0.186,0.137-0.278,0.229
		c-0.186,0.184-0.279,0.368-0.373,0.552c-0.047,0.138-0.094,0.277-0.095,0.415c-0.001,0.092-0.001,0.185,0.045,0.277
		c0,0.046-0.001,0.139-0.047,0.184L19.145,9.08c-0.093,0.046-0.093,0.046,0,0l0.09,0.462c-0.143,0.692-0.193,1.384-0.197,2.031
		c-0.006,1.108,0.08,2.171,0.166,3.188l-3.556-0.021l-2.032-0.012l-0.97-0.006c-0.185-0.001-0.369-0.002-0.6-0.003
		s-0.647,0.042-0.971,0.133c-0.324,0.09-0.602,0.274-0.88,0.457l-0.186,0.137l-0.139,0.138c-0.093,0.092-0.139,0.138-0.232,0.23
		c-0.279,0.275-0.511,0.551-0.79,0.873c-0.465,0.598-0.885,1.196-1.304,1.794c-0.792,1.196-1.446,2.439-2.054,3.683
		c-0.654,1.197-1.215,2.395-1.868,3.499l-2.099,3.498c-1.306,2.209-1.827,4.377-1.044,4.797c-0.001,0.185,0.229,0.371,0.644,0.419
		l0,0c2.078,0.151,4.202,0.255,6.279,0.36c-0.001,0.092-0.048,0.231-0.048,0.369l0,0C7.137,40.648,6.781,46.189,6.61,51.776
		c-0.109,2.771-0.171,5.588-0.141,8.359l-0.006,1.062l-0.002,0.277L6.46,61.613l-0.001,0.185l-0.002,0.416L6.5,62.676
		c0.089,0.601,0.317,1.11,0.777,1.436c0.46,0.326,1.06,0.376,1.661,0.333c0.554-0.043,0.785-0.042,1.155-0.039l1.016,0.006
		l2.078,0.058c6.281,0.129,12.561,0.258,18.842,0.341c0.092,0.047,0.23,0.094,0.323,0.094c0.277,0.048,0.646,0.05,0.877,0.051
		c0.231,0.001,0.369,0.002,0.554-0.043c0.324-0.044,0.601-0.043,0.878-0.041l3.741,0.022c0.139,0.001,0.277,0.002,0.416-0.044
		c2.586,0.015,5.219,0.077,7.805,0.092l4.157,0.024l2.078,0.012c0.693,0.004,1.293,0.008,1.986,0.058
		c1.339,0.1,2.724,0.247,4.155,0.301s2.956,0.063,4.575-0.343l0,0c0,0,0.046,0,0.416,0.002c0.185,0.001,0.554-0.043,0.833-0.226
		c0.324-0.183,0.51-0.367,0.65-0.55c0.186-0.23,0.326-0.506,0.327-0.645l0.094-0.23l0.047-0.184
		c0.095-0.461,0.097-0.738,0.099-1.062c0.002-0.277,0.004-0.6-0.041-0.832l-0.13-1.525c0.001-0.092,0.002-0.416,0.004-0.647
		l0.004-0.739l0.035-6.05l0.071-12.101c0.01-1.709-0.166-3.234-0.483-4.298l0.878,0.005c1.94,0.011,3.56-0.672,3.565-1.55
		c0.005-0.878-1.561-1.579-3.547-1.591l-24.755-0.144C28.338,32.55,15.08,32.843,1.867,33.505c0.742-0.55,1.579-1.561,2.325-2.758
		l2.099-3.498c0.746-1.243,1.354-2.486,1.961-3.684c0.607-1.197,1.261-2.348,1.914-3.407c0.326-0.506,0.699-1.058,1.071-1.518
		c0.186-0.23,0.372-0.46,0.604-0.643l0.186-0.184l15.795,0.092c5.588,0.033,11.223,0.019,16.812,0.006
		c2.818-0.03,5.589-0.06,8.407-0.09l4.203-0.068l0.6,0.003l0.554-0.043l1.017-0.133c0.647-0.089,1.386-0.084,1.432,0.008
		c0.046,0.046,0.092,0.047,0.138,0.139c0.092,0.093,0.183,0.232,0.275,0.371c0.183,0.324,0.366,0.649,0.548,1.019
		c0.183,0.371,0.365,0.741,0.64,1.158l0.64,1.066l2.655,4.172c1.785,2.782,3.524,5.563,5.309,8.298l0,0
		C71.648,34.789,72.251,34.423,71.702,33.404z M33.156,61.63c-0.09-0.37-0.133-0.925-0.084-1.478
		c0.003-0.554,0.053-1.154,0.103-1.755l0.196-1.893c0.002-0.369,0.05-0.646,0.053-1.108c0.002-0.369-0.042-0.693-0.086-1.017
		c-0.042-0.647-0.131-1.294-0.128-1.894l0.002-0.416l0.001-0.092l0,0l0,0l0,0c0,0,0,0,0-0.046c0.369,0.002,0.739,0.004,1.155,0.007
		c0.831,0.005,1.662,0.102,2.539,0.153l0.369,0.002c0.139,0.001,0.323,0.002,0.416,0.002c0.231,0.001,0.508-0.043,0.739-0.042
		c0.462-0.043,0.97-0.087,0.924-0.087c0.092,0.001,0.185,0.001,0.23,0.094c0.046,0,0.137,0.324,0.181,0.694
		c0.088,0.693,0.129,1.571,0.078,2.402c-0.005,0.831-0.056,1.709-0.062,2.632c0.084,1.386,0.169,2.726,0.3,4.066
		c-0.416-0.002-0.785-0.005-1.201-0.007c-0.139-0.001-0.277-0.048-0.462-0.049l-3.787-0.022c-0.323-0.002-0.647,0.042-0.924,0.041
		c-0.185-0.001-0.323-0.002-0.508-0.003L33.156,61.63z M63.374,35.849c-0.329,1.06-0.523,2.583-0.533,4.292l-0.071,12.147
		l-0.035,6.05l-0.004,0.739c-0.002,0.277-0.003,0.462-0.005,0.878l0.13,1.525c-0.001,0.139-0.002,0.277-0.002,0.416l-0.046,0
		c-1.11,0.271-2.357,0.31-3.696,0.256c-1.339-0.054-2.678-0.2-4.109-0.301c-0.369-0.002-0.693-0.05-1.062-0.052l-1.062-0.006
		l-2.078-0.012l-4.157-0.024c-1.847-0.011-3.741-0.022-5.589,0.014l0.347-4.016c0.097-0.785,0.287-1.661,0.384-2.538
		c0.144-0.877,0.241-1.754,0.201-2.77c-0.043-0.508-0.04-1.063-0.405-1.804c-0.319-0.695-1.009-1.207-1.794-1.304
		c-0.877-0.097-1.247-0.007-1.662-0.056c-0.185-0.001-0.369-0.002-0.554-0.003c-0.092-0.001-0.139-0.001-0.231-0.001l-0.277-0.048
		c-0.831-0.097-1.708-0.241-2.631-0.292c-0.462-0.049-0.923-0.052-1.431-0.055c-0.462-0.003-0.832,0.041-1.248,0.131
		c-0.416,0.09-0.695,0.319-1.066,0.548l-0.279,0.368c-0.093,0.138-0.186,0.23-0.233,0.368c-0.14,0.276-0.142,0.6-0.19,0.923
		l-0.049,0.508c-0.001,0.092-0.001,0.185-0.001,0.231l-0.001,0.139l-0.003,0.554c-0.004,0.693,0.084,1.386,0.127,2.033l0.087,0.878
		c-0.001,0.139-0.003,0.508-0.05,0.739l-0.149,1.847c-0.05,0.646-0.1,1.293-0.15,1.985c-0.003,0.508-0.006,1.062,0.083,1.617
		c-5.589,0.014-11.178,0.073-16.767,0.133l-2.079,0.034l-1.062-0.006c-0.369-0.002-0.832,0.041-0.97,0.041
		c-0.092-0.001-0.185,0.045-0.277-0.002c-0.092-0.047-0.092-0.139-0.137-0.232l0-0.046l0.001-0.092l-0.043-0.462l-0.04-1.016
		c-0.122-2.772-0.199-5.544-0.229-8.315C8.166,46.243,8.153,40.654,8,35.111l0,0c0.001-0.139,0.001-0.231-0.044-0.324
		c11.128,0.573,22.303,0.961,33.48,1.027l21.938,0.128L63.374,35.849z M22.345,14.733c-0.086-1.109-0.172-2.172-0.166-3.142
		c0.003-0.508,0.052-1.016,0.101-1.477l0.048-0.323c0.185,0.001,0.369,0.002,0.554,0.003l1.708,0.102
		c0.139,0.001,0.323,0.002,0.554,0.003c0.092,0.001,0.185,0.001,0.323,0.002l0.277,0.002l0.924-0.087l0.832-0.088l0.647-0.042
		c0.046,0,0.093-0.046,0.139-0.045l0.092,0.001c0,0,0,0.046,0.046,0.046c0,0.046,0.046,0,0.046,0.093
		c0.046,0.093,0.091,0.231,0.09,0.324c0.045,0.231,0.136,0.463,0.18,0.74c0.089,0.509,0.132,1.063,0.175,1.664
		c0.042,0.739,0.084,1.478,0.126,2.218c-0.416-0.002-0.831-0.005-1.247-0.007l-5.45-0.032L22.345,14.733z M44.328,15
		c-0.086-1.155-0.172-2.264-0.166-3.28c0.003-0.508,0.052-1.016,0.101-1.477l0.048-0.323c0.185,0.001,0.369,0.002,0.554,0.003
		l1.708,0.102c0.139,0.001,0.323,0.002,0.554,0.003c0.092,0.001,0.185,0.001,0.323,0.002l0.277,0.002l0.924-0.087l0.832-0.088
		l0.647-0.042c0.046,0,0.093-0.046,0.139-0.045l0.092,0.001c0,0,0,0.046,0.046,0.046c0,0.046,0.046,0,0.046,0.093
		c0.046,0.093,0.091,0.231,0.09,0.324c0.045,0.231,0.136,0.463,0.18,0.74c0.089,0.509,0.132,1.063,0.175,1.664
		c0.042,0.785,0.083,1.617,0.17,2.449c-2.124-0.059-4.295-0.117-6.419-0.13C44.559,15.002,44.421,15.001,44.328,15z"/>
	<path fill="#FFFFFF" d="M13.291,46.596l-0.002,0.277l-0.001,0.185l-0.002,0.277c-0.004,0.739,0.269,1.341,0.59,1.851
		c0.322,0.233,0.598,0.465,1.059,0.56c0.184,0.093,0.415,0.095,0.6,0.142c0.231,0.048,0.415,0.095,0.646,0.096
		c0.323,0.002,0.508,0.003,0.785,0.005c0.231,0.001,0.462,0.003,0.693,0.004c0.924-0.041,1.802-0.128,2.68-0.215
		c0.786-0.088,1.205-0.778,1.211-1.656c0.185,0.001,0.37-0.09,0.417-0.229l0,0c0.237-1.015,0.52-2.075,0.711-3.137
		c0.096-0.554,0.191-1.107,0.241-1.661c0.001-0.139,0.002-0.277,0.003-0.508l-0.042-0.693c-0.045-0.231-0.09-0.462-0.181-0.648
		c-0.091-0.185-0.183-0.371-0.32-0.556c-0.184-0.14-0.368-0.233-0.552-0.327c-0.231-0.048-0.415-0.187-0.646-0.189l-1.154-0.145
		c-0.554-0.049-1.154-0.099-1.708-0.149c-0.554-0.049-1.154-0.053-1.755-0.056l-0.508-0.003c-0.277-0.002-0.554,0.043-0.832,0.041
		c-0.139-0.001-0.277,0.045-0.37,0.09l-0.37,0.136c-0.231,0.091-0.417,0.229-0.648,0.32c-0.187,0.322-0.373,0.598-0.468,0.967
		c-0.093,0.184-0.095,0.369-0.096,0.554s-0.049,0.415-0.05,0.6l-0.05,0.739l-0.004,0.647c-0.004,0.739-0.009,1.478-0.013,2.217
		L13.291,46.596z M16.408,42.781C16.408,42.734,16.408,42.734,16.408,42.781C16.408,42.734,16.408,42.734,16.408,42.781
		c0-0.046,0.093-0.046,0.139-0.045l0.185,0.001l1.617-0.083l1.617-0.037l0.416,0.002c0.092,0.001,0.092,0.001,0.139-0.045
		c0.046,0,0.139-0.045,0.231-0.045c0.046,0.046,0.092,0.093,0.137,0.186c0.046,0.093,0.046,0.093,0.09,0.416
		c0.043,0.508,0.086,1.017,0.13,1.525c0.041,0.832,0.083,1.617,0.124,2.449c-0.275-0.279-0.69-0.466-1.06-0.422
		c-0.878,0.087-1.71,0.175-2.541,0.17c-0.185-0.001-0.416-0.002-0.6-0.003c-0.185-0.001-0.416-0.002-0.554-0.003l0,0l-0.041-0.878
		c0.004-0.693-0.038-1.386,0.012-2.078L16.408,42.781L16.408,42.781z"/>
	<path fill="#FFFFFF" d="M48.715,46.803l-0.002,0.277l-0.001,0.185l-0.002,0.277c-0.004,0.739,0.269,1.341,0.59,1.851
		c0.322,0.233,0.598,0.465,1.059,0.56c0.184,0.093,0.415,0.095,0.6,0.142c0.231,0.048,0.415,0.095,0.646,0.096
		c0.323,0.002,0.508,0.003,0.785,0.005c0.231,0.001,0.462,0.003,0.693,0.004c0.924-0.041,1.802-0.128,2.68-0.215
		c0.786-0.088,1.205-0.778,1.211-1.656c0.185,0.001,0.37-0.09,0.417-0.229l0,0c0.284-1.245,0.615-2.537,0.854-3.875
		c0.048-0.323,0.096-0.692,0.144-1.015l0.002-0.277c0.001-0.139,0.002-0.277,0.002-0.416c0.002-0.277-0.043-0.554-0.088-0.786
		c-0.045-0.139-0.045-0.277-0.136-0.37c-0.046-0.093-0.091-0.231-0.183-0.324l-0.091-0.185c-0.046-0.046-0.092-0.047-0.138-0.093
		l-0.322-0.187c-0.23-0.094-0.461-0.187-0.784-0.236l-0.738-0.097c-1.338-0.193-2.677-0.293-4.063-0.255
		c-1.063,0.04-2.634,0.169-2.826,1.415c-0.047,0.138-0.094,0.277-0.141,0.415l-0.049,0.462c-0.001,0.139-0.048,0.323-0.049,0.462
		l-0.002,0.323c-0.002,0.323-0.05,0.693-0.052,1.016c-0.004,0.739-0.009,1.478-0.013,2.217L48.715,46.803z M51.832,42.987
		L51.832,42.987C51.832,42.987,51.832,42.941,51.832,42.987c0-0.046,0-0.046,0-0.046l0,0c0,0,0,0,0.092,0.001
		c1.201-0.085,2.495-0.124,3.742-0.163c0.231,0.001,0.139,0.001,0.231-0.045l0.139-0.045c0.093-0.046,0.184,0.047,0.23,0.094
		c0.046,0.046,0.046,0.093,0.045,0.139c0,0.046,0,0.046,0.046,0.093c0,0.046-0.001,0.139,0.045,0.185
		c0.045,0.277,0.043,0.601,0.087,0.924c0.086,1.017,0.08,2.079,0.166,3.142c-0.276-0.279-0.69-0.466-1.06-0.422
		c-0.878,0.087-1.71,0.175-2.541,0.17c-0.185-0.001-0.416-0.002-0.6-0.004c-0.185-0.001-0.416-0.002-0.554-0.003l0,0l-0.041-0.878
		c0.004-0.693-0.038-1.386,0.012-2.078l0.005-0.924L51.832,42.987L51.832,42.987z"/>
</g>
</svg>
