<?xml version="1.0" encoding="utf-8"?>
<!-- Generator: Adobe Illustrator 17.0.0, SVG Export Plug-In . SVG Version: 6.00 Build 0)  -->
<!DOCTYPE svg PUBLIC "-//W3C//DTD SVG 1.1//EN" "http://www.w3.org/Graphics/SVG/1.1/DTD/svg11.dtd">
<svg version="1.1" id="Layer_1" xmlns="http://www.w3.org/2000/svg" xmlns:xlink="http://www.w3.org/1999/xlink" x="0px" y="0px"
	 width="288px" height="288px" viewBox="0 0 288 288" enable-background="new 0 0 288 288" xml:space="preserve">
<g>
	<g>
		<g>
			<path fill="#FFFFFF" d="M48.509,133.293c5.096-3.38,9.567-8.15,14.34-12.252c0.903-0.775,1.893-1.754,2.508-2.654
				c1.021-1.497,1.528-3.206,2.72-4.464c1.049-1.112,2.873-1.501,4.134-2.612c4.068-3.582,8.386-6.993,11.592-11.523
				c0.653-0.914,1.483-1.963,2.338-2.675c5.572-4.652,10.578-9.956,15.716-15.108c0.629-0.636,1.563-1.428,1.779-1.956
				c1.32-3.175,3.616-4.648,6.482-6.371c3.21-1.928,6.163-4.53,6.996-8.091c0.17-0.726,2.039-2.922,2.567-3.095
				c2.703-0.889,5.419-4.467,8.209-5.03c1.369-0.281,1.612-1.918,1.626-2.838l-0.587-0.57l-0.076,0.031l0.65,0.577
				c0.438-0.438,0.91-0.851,1.303-1.296c1.633-1.886,6.142-6.003,7.952-7.024c1.622-0.917,2.748-2.06,3.717-3.606
				c2.97-4.718,7.333-9.355,9.616-14.16c0.723-1.515,2.262-3.349,3.641-4.922c3.45-3.929,5.055-7.542,6.302-11.099
				c0.698-1.98,0.91-3.776,1.72-5.794c1.553-3.866-0.202-5.107-1.581-6.628c-0.41-0.452-1.82,0.316-2.397,1.358
				c-1.379,2.494-2.956,4.071-5.371,4.94c-0.507,0.188-1.511,1.105-1.938,1.713c-2.043,2.908-4.037,5.489-7.365,7.33
				c-1.483,0.82-1.685,3.325-3.849,4.506l-0.198,0.073c-1.32,1.136-2.88,2.908-3.919,3.297c-3.349,1.251-5.965,4.551-8.886,6.91
				c-0.615,0.504-1.407,1.497-1.612,2.067c-1.369,3.849-4.801,6.673-8.178,9.564l0.028-0.063l0.504,3.071
				c0.045,0.104,0.125,0.184,0.129,0.316c0.003,0.097-0.08,0.257-0.129,0.393l0.052-0.733c-2.289-0.288-2.334-0.271-5.082,2.633
				l-0.146,0.396c0.337,2.779,0.323,2.744-2.585,5.058c-1.838,1.466-3.734,2.946-5.447,4.606
				c-7.493,7.274-14.75,14.931-22.452,21.861c-6.875,6.19-12.426,13.531-19.506,19.367c-0.66,0.549-1.483,1.383-1.81,2.001
				c-1.994,3.776-4.94,6.013-8.483,8.344c-3.026,1.997-3.884,3.766-5.183,8.521c-1.108,0.08-2.039-0.191-3.206,0.333
				c-1.004,0.455-2.345,1.74-3.408,2.796l-11.704,11.79l-12.023,11.881l11.596,11.794l6.705,7.003
				c2.55,2.685,4.808,4.554,7.563,4.627c1.157,3.71,3.769,6.659,6.778,9.918c12.1,13.104,25.3,25.109,37.615,37.959l25.373,26.739
				l6.951,7.368c1.522,1.567,3.106,2.97,4.724,3.106c1.31,0.118,1.588,1.077,1.667,1.904c0.129,1.303,0.994,2.644,2.414,4.044
				c9.838,9.723,19.666,19.464,30.258,28.086c1.921,1.56,3.248,1.681,3.595,0.448c1.056-3.769-0.4-8.81-3.248-14.559
				c-0.594-1.153-1.192-2.317-1.789-3.477c-0.368-0.688-0.716-1.407-1.23-2.077c-1.751-2.282-4.137-2.831-5.697-4.422
				c-1.33-1.348-1.278-3.411-3.866-5.155c-3.029-2.046-4.989-4.87-7.194-7.775c-3.126-4.13-6.25-8.633-11.037-11.634
				c-0.448-0.278-1.219-0.813-1.296-1.025c-1.337-3.613-5.836-6.142-7.771-9.567c-0.493-0.868-1.754-2.439-2.241-2.616
				c-3.985-1.41-4.638-4.686-6.639-7.236c-1.066-1.362-2.369-2.939-3.658-3.898c-2.195-1.633-4.2-2.998-5.569-5.53
				c-0.403-0.75-1.601-1.806-2.47-2.439c-2.3-1.664-4.94-2.928-5.103-5.791c-0.017-0.34-1.039-1.379-1.674-2.004l-12.509-12.273
				c-1.549-1.522-3.012-2.953-4.818-3.842c-0.622-0.302-1.779-1.598-2.154-2.321c-2.192-4.28-5.881-7.424-9.71-10.269
				c-2.248-1.671-4.881-2.55-5.68-5.614c-3.821-2.202-5.826-5.655-8.344-8.855c-0.705-0.896-2.685-2.307-3.206-2.255
				c-2.432,0.254-3.679-2.88-5.475-4.273c-0.031-0.611-0.135-1.181-0.316-1.702c-0.094-0.261-0.201-0.507-0.337-0.743l-0.215-0.344
				l-0.014-0.09c-0.08-0.212-0.431-0.111-1.542-0.059c-0.188,0.003-0.455-0.448-0.261-0.514c0.844-0.347,1.046-0.469,0.889-0.636
				c0.069-0.069,0.097-0.146,0.125-0.24c0.066-0.195,0.274-0.396,0.486-0.573l0.323-0.257c0.111-0.101-0.021,0.042,0.281-0.254
				l0.806-0.796l5.715-5.812c1.348-1.313,1.574-2.268,1.716-3.276L48.509,133.293z M135.642,258.711l-0.038,0.452l0.09-0.431
				l-2.744-3.29c-0.135-0.167-0.122-0.389-0.174-0.587c0.354,0.177,0.938,0.375,1.028,0.532
				C134.474,256.502,135.044,257.603,135.642,258.711z M152.445,15.417c-0.347,0.08-0.858,0.33-0.994,0.198
				c-0.153-0.153,0.028-0.639,0.063-0.98c0.483-0.135,1.007-0.337,1.407-0.337C153.004,14.295,152.615,15.018,152.445,15.417z
				 M137.156,255.331c-0.372-0.268-0.643-0.466-0.917-0.664l0.403-0.056C136.784,254.81,136.923,255.004,137.156,255.331z
				 M36.271,160.341l0.243-0.083l0.274,0.479L36.271,160.341z M143.757,269.98l-0.42-0.083l-0.024-0.396L143.757,269.98z"/>
		</g>
	</g>
	<g>
		<g>
			<path fill="#FFFFFF" d="M134.46,137.149c-3.7-1.212-7.726-1-11.596-1.476c-0.73-0.09-1.591-0.097-2.251,0.104
				c-1.101,0.337-2.063,1.185-3.133,1.233c-0.941,0.042-1.907-0.973-2.942-1.077c-3.338-0.344-6.708-0.987-10.081-0.049
				c-0.681,0.184-1.504,0.337-2.185,0.236c-4.457-0.653-8.952-0.441-13.44-0.431c-0.552,0.003-1.303-0.094-1.629,0.125
				c-1.959,1.313-3.606,0.733-5.603-0.076c-2.241-0.907-4.662-1.153-6.58,0.775c-0.389,0.389-2.164,0.618-2.47,0.368
				c-1.567-1.278-4.311-0.67-5.774-2.244c-0.719-0.775-1.539,0.212-1.949,0.855l0.007,0.82l0.049,0.031l-0.031-0.868
				c-0.379,0-0.768-0.042-1.132-0.003c-1.532,0.181-5.294-0.097-6.527-0.657c-1.108-0.5-2.098-0.486-3.196-0.08
				c-3.352,1.237-7.274,1.428-10.366,3.213c-0.976,0.559-2.446,0.771-3.734,0.907c-3.22,0.337-5.492,1.761-7.59,3.394
				c-1.167,0.91-2.043,2.029-3.276,2.883c-2.366,1.636-2.14,3.755-2.202,5.805c-0.017,0.608,0.934,1.063,1.64,0.733
				c1.688-0.789,3.064-0.789,4.495,0.306c0.299,0.229,1.139,0.292,1.591,0.16c2.157-0.611,4.151-1.028,6.406,0.024
				c1.004,0.469,2.185-1.16,3.644-0.465l0.118,0.087c1.07,0.129,2.526-0.021,3.147,0.438c2.004,1.483,4.582,1,6.885,1.396
				c0.486,0.08,1.268-0.063,1.605-0.32c2.275-1.754,5.006-1.324,7.736-0.98l-0.038,0.024l1.119-2.529
				c0.028-0.108,0.028-0.222,0.083-0.316c0.038-0.069,0.146-0.125,0.226-0.188l-0.344,0.483c0.875,1.827,0.903,1.848,3.366,1.737
				l0.236-0.181c1.063-2.202,1.056-2.168,3.331-1.747c1.442,0.264,2.915,0.556,4.384,0.594c6.441,0.156,12.944-0.125,19.322,0.42
				c5.694,0.483,11.318-0.782,16.949,0.097c0.528,0.08,1.251,0.073,1.664-0.135c2.515-1.258,4.773-0.757,7.337,0.097
				c2.189,0.733,3.335,0.087,5.975-2.359c0.518,0.726,0.806,1.581,1.542,2.032c0.636,0.389,1.782,0.431,2.706,0.434l10.244-0.063
				c6.065,0.09,12.131,0.191,18.179,0.452c2.286,0.094,4.085-0.181,5.319-2.077c2.123,1.806,4.544,2.043,7.278,2.22
				c10.988,0.709,21.979-0.135,32.953,0.243c7.57,0.323,15.146,0.646,22.723,0.966l6.243,0.292c1.348,0.031,2.647-0.097,3.415-1.146
				c0.618-0.844,1.16-0.361,1.556,0.167c0.625,0.834,1.588,1.167,2.817,1.153c8.528-0.08,17.06-0.142,25.439-1.532
				c1.515-0.257,2.15-1.108,1.761-2.227c-1.181-3.415-4.016-5.947-7.764-8c-0.771-0.399-1.539-0.799-2.296-1.192
				c-0.459-0.226-0.924-0.49-1.442-0.601c-1.761-0.375-3.04,0.921-4.415,0.903c-1.167-0.014-2.043-1.511-3.932-0.914
				c-2.213,0.695-4.301,0.087-6.527-0.41c-3.165-0.712-6.489-1.688-9.887-0.424c-0.316,0.122-0.889,0.288-1.014,0.195
				c-2.157-1.608-5.221-0.215-7.559-1.268c-0.591-0.268-1.827-0.486-2.116-0.268c-2.352,1.824-4.064-0.035-6.048-0.42
				c-1.056-0.208-2.314-0.399-3.293-0.167c-1.667,0.396-3.137,0.851-4.839,0.028c-0.504-0.243-1.487-0.146-2.14,0.024
				c-1.73,0.455-3.432,1.424-4.752-0.486c-0.153-0.226-1.053-0.24-1.601-0.233l-10.807,0.167c-1.337,0.017-2.602,0.042-3.776,0.691
				c-0.403,0.226-1.473,0.129-1.952-0.118c-2.821-1.473-5.801-1.084-8.713-0.393c-1.706,0.406-3.238,1.647-4.923,0.045
				c-2.63,1.143-5.006,0.122-7.5-0.361c-0.702-0.139-2.178,0.267-2.383,0.67c-0.952,1.9-2.862,0.566-4.252,0.851
				c-1.126-1.636-2.421-2.008-4.127-0.361c-0.146,0.139-1.303,0.003-1.4-0.177c-0.65-1.195-1.72-1.153-3.224-1.004
				c-1.82,0.184-3.71-0.01-5.572-0.01c-1.674,0.003-3.356,0.104-5.027,0.069c-1.16-0.024-1.674,0.493-2.175,1.105L134.46,137.149z
				 M245.305,148.425l0.181,0.347l-0.149-0.365l-2.63-0.386c-0.132-0.024-0.226-0.188-0.333-0.292
				c0.233-0.122,0.573-0.396,0.681-0.351C243.832,147.696,244.562,148.071,245.305,148.425z M37.723,147.015
				c0.184,0.191,0.514,0.375,0.518,0.563c0,0.219-0.292,0.434-0.455,0.65c-0.268-0.247-0.587-0.476-0.761-0.757
				C36.99,147.411,37.476,147.175,37.723,147.015z M244.489,144.972c-0.278,0.069-0.483,0.122-0.688,0.177l0.149-0.323
				C244.1,144.868,244.246,144.906,244.489,144.972z M159.076,149.145l0.069-0.233l0.33,0.146L159.076,149.145z M253.754,150.666
				l-0.219,0.236l-0.184-0.264L253.754,150.666z"/>
		</g>
	</g>
</g>
</svg>
