<?xml version="1.0" encoding="utf-8"?>
<!-- Generator: Adobe Illustrator 17.0.0, SVG Export Plug-In . SVG Version: 6.00 Build 0)  -->
<!DOCTYPE svg PUBLIC "-//W3C//DTD SVG 1.1//EN" "http://www.w3.org/Graphics/SVG/1.1/DTD/svg11.dtd">
<svg version="1.1" id="Layer_1" xmlns="http://www.w3.org/2000/svg" xmlns:xlink="http://www.w3.org/1999/xlink" x="0px" y="0px"
	 width="72px" height="72px" viewBox="0 0 72 72" enable-background="new 0 0 72 72" xml:space="preserve">
<g>
	<path fill="#FFFFFF" d="M23.791,21.861l0.181,0.587c0.09,0.407,0.316,0.768,0.542,1.129c0.587,0.813,1.4,1.536,2.304,1.852
		s1.852,0.497,2.801,0.361c0.949-0.136,1.897-0.407,2.665-1.039c0.768-0.587,1.445-1.491,1.717-2.439
		c0.181-0.452,0-0.903-0.226-1.174c-0.226-0.316-0.632-0.452-1.039-0.452c-0.407,0-0.813,0.136-1.084,0.271
		c-0.316,0.136-0.452,0.316-0.542,0.497c-0.09,0.407-0.361,0.678-0.632,0.949c-0.316,0.271-0.768,0.407-1.174,0.452
		c-0.903,0.136-1.897-0.271-2.259-0.903c-0.09-0.136-0.181-0.271-0.226-0.407c-0.045-0.09-0.045-0.136-0.09-0.226
		c0-0.09,0-0.181-0.045-0.271c0-0.09-0.045-0.181-0.045-0.271s0-0.181,0-0.271v-0.09c0.361,0.407,0.903,0.587,1.4,0.542
		c0.542-0.045,1.129-0.452,1.31-1.039c0.09-0.271-0.181-0.497-0.407-0.497c0.045,0,0.136,0,0.136-0.09l0,0
		c0.045-0.361-0.09-0.813-0.452-1.039l0,0c0.632-0.181,1.4-0.181,2.033,0.136c0.813,0.316,1.445,1.084,1.671,2.168
		c0.045,0.136,0.226,0.226,0.407,0.226c0.181,0,0.361-0.09,0.361-0.226c0.045-0.632,0-1.31-0.271-1.942L32.6,18.157
		c-0.09-0.136-0.181-0.271-0.316-0.452c-0.181-0.316-0.497-0.542-0.768-0.768c-1.129-0.903-2.665-1.129-4.111-0.813
		c-0.361,0.045-0.723,0.226-1.084,0.361c-0.316,0.181-0.678,0.407-0.994,0.632c-0.271,0.271-0.587,0.542-0.813,0.903
		c-0.09,0.181-0.226,0.361-0.316,0.497c-0.09,0.181-0.136,0.361-0.226,0.542c-0.045,0.181-0.136,0.361-0.181,0.587l-0.09,0.587
		c0,0.181-0.045,0.407-0.045,0.587l0.045,0.587C23.746,21.5,23.746,21.681,23.791,21.861z"/>
	<path fill="#FFFFFF" d="M38.156,21.861l0.181,0.587c0.09,0.407,0.316,0.768,0.542,1.129c0.587,0.813,1.4,1.536,2.304,1.852
		c0.903,0.316,1.852,0.497,2.801,0.361c0.949-0.136,1.897-0.407,2.665-1.039c0.768-0.587,1.445-1.491,1.717-2.439
		c0.181-0.452,0-0.903-0.226-1.174c-0.226-0.316-0.632-0.452-1.039-0.452s-0.813,0.136-1.084,0.271
		c-0.09,0.045-0.181,0.09-0.271,0.181c-0.09-0.226-0.181-0.407-0.407-0.542c-0.316-0.271-0.768-0.361-1.22-0.271
		c-0.452,0.09-0.858,0.407-1.039,0.903c-0.136,0.452-0.136,0.949,0.136,1.355c0.09,0.09,0.181,0.181,0.271,0.271
		c-0.903,0.045-1.762-0.316-2.168-0.903c-0.09-0.136-0.181-0.271-0.226-0.407c-0.045-0.09-0.045-0.136-0.09-0.226
		c0-0.09,0-0.181-0.045-0.271c0-0.09-0.045-0.181-0.045-0.271s0-0.181,0-0.271v-0.271c0-0.09,0.045-0.181,0.09-0.271
		c0.181-0.632,0.632-1.22,1.4-1.536c0.768-0.316,1.717-0.407,2.53-0.045c0.813,0.316,1.445,1.084,1.671,2.168
		c0.045,0.136,0.226,0.226,0.407,0.226s0.361-0.09,0.361-0.226c0.045-0.632,0-1.31-0.271-1.942l-0.226-0.497
		c-0.09-0.136-0.181-0.271-0.316-0.452c-0.181-0.316-0.497-0.542-0.768-0.768c-1.129-0.903-2.665-1.129-4.111-0.813
		c-0.361,0.045-0.723,0.226-1.084,0.361c-0.316,0.181-0.678,0.407-0.994,0.632c-0.271,0.271-0.587,0.542-0.813,0.903
		c-0.09,0.181-0.226,0.361-0.316,0.497c-0.09,0.181-0.136,0.361-0.226,0.542c-0.045,0.181-0.136,0.361-0.181,0.587l-0.09,0.587
		c0,0.181-0.045,0.407-0.045,0.587l0.045,0.587C38.111,21.5,38.111,21.681,38.156,21.861z"/>
	<path fill="#FFFFFF" d="M35.4,51.178c-0.407,0-0.813,0.181-1.084,0.407c-0.271,0.226-0.497,0.542-0.587,0.858
		c-0.226,0.678-0.587,1.265-1.174,1.671c-0.542,0.452-1.31,0.723-2.033,0.768c-1.536,0.181-3.162-0.452-3.885-1.581
		c-0.316-0.452-0.497-1.039-0.587-1.626c-0.09-0.632-0.045-1.31,0.136-1.852c0.316-1.129,1.22-2.078,2.484-2.53
		c1.22-0.452,2.755-0.452,3.975,0.181c1.265,0.587,2.168,1.852,2.439,3.388l0,0C35.039,51.087,35.22,51.178,35.4,51.178
		s0.361-0.09,0.361-0.361l0,0c0.045-0.858-0.09-1.807-0.452-2.665c-0.361-0.858-1.039-1.626-1.807-2.168
		c-0.768-0.587-1.717-0.949-2.665-1.084c-0.949-0.181-1.942-0.181-2.936,0.09c-0.949,0.226-1.942,0.678-2.71,1.355
		c-0.813,0.678-1.445,1.626-1.807,2.62s-0.452,2.033-0.361,3.072c0.09,1.039,0.452,2.078,1.039,3.026
		c0.723,1.129,1.852,1.942,3.026,2.439c1.174,0.497,2.484,0.632,3.704,0.497c1.265-0.136,2.484-0.587,3.523-1.355
		c1.039-0.768,1.852-1.942,2.259-3.207c0.181-0.587,0.09-1.174-0.136-1.581C36.168,51.403,35.807,51.178,35.4,51.178z"/>
	<path fill="#FFFFFF" d="M41.724,48.467h2.304c1.265,0,2.53-0.361,3.749-1.129c0.09-0.045,0.09-0.723,0-0.768
		c-1.265-0.768-2.53-1.129-3.749-1.129h-2.304c-0.181,0-0.316,0.678-0.316,1.491C41.408,47.745,41.544,48.467,41.724,48.467z"/>
	<path fill="#FFFFFF" d="M44.028,49.687h-2.304c-0.181,0-0.316,0.678-0.316,1.491s0.136,1.491,0.316,1.491h2.304
		c1.265,0,2.53-0.361,3.749-1.129c0.09-0.045,0.09-0.723,0-0.768C46.512,50.048,45.248,49.687,44.028,49.687z"/>
	<path fill="#FFFFFF" d="M44.028,53.888h-2.304c-0.181,0-0.316,0.678-0.316,1.491c0,0.813,0.136,1.491,0.316,1.491h2.304
		c1.265,0,2.53-0.361,3.749-1.129c0.09-0.045,0.09-0.723,0-0.768C46.512,54.249,45.248,53.888,44.028,53.888z"/>
	<path fill="#FFFFFF" d="M66.433,58.179c-0.181-0.949-0.587-1.897-1.31-2.71c-0.271-0.316-0.587-0.587-0.949-0.813
		c0.226-0.316,0.407-0.632,0.542-0.994c0.09-0.181,0.136-0.361,0.181-0.587c0.045-0.181,0.09-0.407,0.09-0.542
		c0-0.316,0.045-0.678,0.045-0.994c0-0.678-0.136-1.31-0.316-1.897c-0.723-2.439-2.304-4.336-4.201-5.692
		c-0.949-0.678-1.988-1.22-3.117-1.581c-1.174-0.361-2.259-0.452-3.388-0.497c-0.226,0-0.452,0-0.632,0
		c0-0.136,0.045-0.316,0.045-0.452l0.045-0.452c0-0.136,0-0.271,0.045-0.542c0-0.452,0-0.949-0.136-1.4
		c-0.09-0.226-0.181-0.361-0.316-0.542c-0.181-0.136-0.361-0.226-0.587-0.316c-0.407-0.181-0.903-0.181-1.4-0.181h-0.542
		l-0.452,0.045l-0.858,0.045c-0.407,0.045-1.084,0-1.626,0c-2.394-0.045-4.833-0.09-7.227-0.136
		c0.136-0.587,0.226-1.129,0.316-1.717c0.045-0.361,0.09-0.768,0.09-1.174h5.692c0.587,0,1.039,0.045,1.852-0.045
		c0.723-0.09,1.491-0.316,2.123-0.678c1.31-0.678,2.349-1.852,2.936-3.162c0.271-0.632,0.271-1.31,0.045-1.762
		s-0.587-0.723-0.994-0.723c0.181,0,0.361-0.316,0.407-0.903c0.09-1.852,0.136-3.749,0.226-5.646h1.31
		c0.903,0,1.807-0.361,2.71-1.129c0.045-0.045,0.045-0.723,0-0.768c-0.903-0.768-1.807-1.129-2.71-1.129h-1.22l0.045-1.897
		c0-0.587,0.045-1.129,0.09-1.717l0.09-0.858v-0.226v-0.136v-0.181v-0.361l-0.045-0.361c-0.09-0.452-0.271-0.858-0.632-1.129
		c-0.361-0.271-0.813-0.407-1.265-0.497c-0.271-0.045-0.361-0.045-0.542-0.045s-0.316,0-0.497-0.045l-0.903-0.045l-3.523-0.09
		l-7.047-0.136c-0.136,0-0.226,0-0.361,0c-0.045-0.271-0.181-0.542-0.452-0.768c-0.407-0.361-0.858-0.678-1.31-0.949
		c0.316-0.136,0.587-0.226,0.903-0.361l3.975-1.355l-1.626-0.903L37.93,5.871l-1.355-0.723l-0.271-0.136c0,0,0.045,0,0.045-0.045
		l2.033-1.265l1.717-1.129c-1.4-0.678-2.665-1.265-3.794-1.807c-0.316-0.136-0.497-0.226-0.678-0.271l-0.497-0.181l-1.174-0.452
		c-0.045,0-0.045,0-0.09,0c-0.271,0-0.542,0.497-0.316,0.678l0.994,0.768l0.542,0.361c0.181,0.136,0.361,0.271,0.407,0.316
		c0.316,0.271,0.452,0.497,0.542,0.632c-0.226,0.09-3.026,1.355-3.026,1.355l-2.259,1.174l1.762,1.039l2.123,1.265l0,0
		c-0.181,0.09-0.361,0.181-0.542,0.316C34,7.813,33.864,7.949,33.729,8.039c-0.045,0.045-0.136,0.136-0.226,0.181
		c-0.045,0.045-0.136,0.136-0.226,0.271c-0.136,0.181-0.361,0.542-0.361,0.994c0,0.226,0,0.452,0.045,0.632
		c0.045,0.09,0.045,0.181,0.09,0.271c0.045,0.09,0.09,0.136,0.09,0.181c0.316,0.452,0.542,0.632,0.723,0.768
		c-2.981-0.045-6.008-0.09-8.944-0.136c-0.452,0-1.129-0.09-1.717-0.136c-0.587-0.045-1.22-0.09-1.897-0.045h-0.271l-0.361,0.045
		c-0.316,0.045-0.587,0.136-0.858,0.181c-0.136,0.045-0.271,0.09-0.407,0.136s-0.226,0.136-0.361,0.226
		c-0.09,0.09-0.226,0.181-0.316,0.271c-0.09,0.09-0.181,0.226-0.226,0.361c-0.316,0.452-0.361,1.039-0.407,1.626
		c0,0.407,0,0.678,0,1.039c0.045,1.265,0.271,2.484,0.226,3.478v0.813h-0.407c-0.903,0-1.807,0.361-2.71,1.129
		c-0.045,0.045-0.045,0.723,0,0.768c0.903,0.723,1.807,1.129,2.71,1.129h0.452v1.852c0,0.181-0.045,0.587-0.09,0.949l-0.045,1.039
		L18.19,26.65v0.316v0.136v0.271c0,0.723,0.045,1.445,0.361,1.942c0.09,0.136,0.181,0.226,0.271,0.361
		c0.09,0.136,0.226,0.181,0.361,0.271c0.136,0.09,0.271,0.136,0.407,0.181c0.09,0.632,0.361,1.31,0.723,1.852
		c0.632,0.903,1.581,1.491,2.484,1.897c1.897,0.813,3.885,0.949,5.782,0.994c0.768,0.045,1.536,0,2.259,0v0.407v0.678
		c0,0.587,0,1.174,0.045,1.762v0.045l-4.246-0.045c-0.452,0-1.039-0.09-1.626-0.136c-0.587-0.045-1.174-0.09-1.807-0.136
		c-0.587-0.045-1.22-0.045-1.897,0l-0.497,0.045c-0.136,0.045-0.542,0.045-0.768,0.136c-0.542,0.136-0.994,0.452-1.4,0.858
		c-0.09,0.181-0.181,0.361-0.271,0.542c-0.09,0.181-0.136,0.407-0.181,0.587l-0.09,0.632v0.407c0,0.226,0,0.452,0,0.632
		c-0.316-0.045-0.587-0.045-0.858-0.09c-0.226-0.045-0.452-0.09-0.632-0.181c-0.09-0.045-0.09-0.045-0.136-0.09
		c-0.09-0.09-0.181-0.136-0.226-0.181c-0.316-0.271-0.452-0.497-0.587-0.949c-0.136-0.407-0.226-1.039-0.407-1.762
		c-0.181-0.723-0.452-1.445-0.994-2.213c0.632-0.452,1.174-1.039,1.581-1.717c0.723-1.129,1.039-2.394,1.129-3.569
		c0.045-0.587-0.678-0.994-1.491-0.949c-0.858,0.045-1.491,0.407-1.536,0.768c-0.09,1.626-0.903,2.981-2.168,3.433
		c-1.039,0.361-2.259,0.271-3.252-0.407s-1.762-2.033-2.078-3.614c-0.045-0.226-0.723-0.271-0.768,0
		c-0.226,0.858-0.271,1.762-0.136,2.71c0.181,0.949,0.587,1.897,1.31,2.71c0.316,0.361,0.723,0.723,1.174,0.949
		c-0.181,0.271-0.316,0.542-0.452,0.858c-0.09,0.181-0.136,0.361-0.181,0.587c-0.045,0.181-0.09,0.407-0.09,0.542
		c0,0.316-0.09,0.678-0.045,0.994c0,0.678,0.136,1.31,0.271,1.897c0.723,2.439,2.304,4.336,4.201,5.692
		c0.949,0.678,1.988,1.22,3.117,1.581c1.174,0.361,2.259,0.452,3.388,0.497h0.136v7.679v3.298c-0.045,0.452-0.09,1.084-0.136,1.671
		v0.497c0,0.271,0,0.587,0.045,0.858c0,0.271,0.09,0.542,0.181,0.768c0.09,0.226,0.271,0.407,0.407,0.632
		c0.452,0.316,0.858,0.542,1.4,0.632c0.226,0.09,0.587,0.09,0.768,0.136c0.181,0,0.316,0.045,0.497,0.045
		c0.587,0.045,1.084,0,1.626,0v0.09c0,0.407,0,0.813,0,1.22c0.045,0.768,0.09,1.491,0.136,2.259l0.045,0.587l0.045,0.271
		l0.045,0.452c0.09,0.361,0.136,0.723,0.271,1.039c0.045,0.136,0.136,0.316,0.271,0.407c0.045,0.045,0.136,0.09,0.136,0.181
		l0.181,0.136c0.452,0.271,0.994,0.407,1.536,0.452c0.136,0,0.271,0,0.452,0c0.09,0,0.181,0,0.271,0c0.181,0,0.316,0,0.497,0
		c0.632,0,1.22-0.09,1.807-0.136l0.813-0.09h0.316h0.407h1.717c0.903,0,1.581-0.678,1.581-1.491c0.181,0,0.361-0.09,0.407-0.271
		c0.271-1.491,0.587-2.981,0.678-4.562c0-0.271,0-0.542,0-0.813h2.168c0,0.136,0,0.271,0,0.407c0,0.407,0,0.813,0,1.22
		c0.045,0.994,0.09,1.942,0.226,2.891l0.045,0.407c0.045,0.226,0.09,0.452,0.136,0.678c0.045,0.226,0.136,0.452,0.226,0.632
		c0.09,0.226,0.226,0.316,0.361,0.497c0.271,0.316,0.723,0.452,1.129,0.587c0.226,0.045,0.452,0.045,0.678,0.09
		c0.136,0,0.226,0,0.361,0h0.226c1.084,0,2.033-0.136,2.891-0.181c0.226,0,0.407-0.045,0.587-0.045h2.078
		c0.858,0,1.581-0.678,1.581-1.491c0.181,0,0.361-0.09,0.407-0.271c0.271-1.491,0.587-2.981,0.678-4.562c0-0.271,0-0.587,0-0.903
		c2.259-0.226,3.93-0.768,3.93-1.445c0.181,0,0.361-0.361,0.407-1.084c0.136-4.291,0.271-8.583,0.407-12.874h0.045
		c0.632,0.045,1.265,0.09,1.762,0.181c0.271,0.045,0.452,0.09,0.632,0.181c0.09,0.045,0.09,0.045,0.136,0.09
		c0.09,0.045,0.181,0.136,0.226,0.181c0.316,0.271,0.452,0.497,0.632,0.949c0.136,0.407,0.226,1.039,0.407,1.762
		c0.181,0.678,0.407,1.355,0.903,2.078c-0.723,0.497-1.355,1.129-1.807,1.852c-0.723,1.129-1.039,2.394-1.129,3.569
		c-0.045,0.587,0.678,0.994,1.491,0.949c0.858-0.045,1.491-0.407,1.536-0.768c0.09-1.626,0.903-2.981,2.168-3.433
		c1.039-0.361,2.259-0.271,3.252,0.407c0.994,0.678,1.762,2.033,2.078,3.614c0.045,0.226,0.723,0.226,0.768,0
		C66.523,60.031,66.614,59.083,66.433,58.179z M18.371,44.583v2.53c-0.949-0.181-1.988-0.407-2.801-0.768
		c-0.858-0.361-1.626-0.903-2.349-1.491c-1.4-1.22-2.53-2.846-2.936-4.517c-0.09-0.407-0.136-0.813-0.136-1.22
		c0-0.226,0.045-0.407,0.045-0.587c0-0.136,0.045-0.181,0.045-0.226c0-0.09,0.045-0.136,0.045-0.181
		c0.181-0.497,0.678-0.768,0.949-0.768c0.181,0,0.316,0.09,0.542,0.316c0.181,0.226,0.407,0.678,0.497,1.174
		c0.136,0.497,0.226,1.174,0.497,1.988c0.226,0.813,0.813,1.671,1.491,2.259c0.181,0.136,0.361,0.271,0.497,0.407
		c0.09,0.09,0.226,0.136,0.361,0.226c0.136,0.045,0.226,0.136,0.361,0.181c0.452,0.181,0.858,0.271,1.265,0.361
		c0.587,0.09,1.084,0.136,1.626,0.181C18.371,44.447,18.371,44.583,18.371,44.583z M21.126,14.002L21.126,14.002L21.126,14.002
		c0.045,0,0.09-0.045,0.136-0.045h0.181c0.497-0.045,1.039,0,1.626,0c0.587,0.045,1.129,0.09,1.807,0.09
		c4.743-0.045,9.396-0.136,14.139-0.226l7.047-0.181l3.523-0.09h0.858c0.136,0,0.271,0,0.407,0h0.316c0.136,0,0.226,0,0.361,0.09
		c0.136,0.09,0.181,0.181,0.181,0.316c0.045,0.09,0,0.858,0,1.4c0,0.587,0,1.22,0,1.807l0.136,3.523
		c0.09,2.349,0.181,4.698,0.271,7.002c0,0.136,0,0.271,0.045,0.361c-0.723-0.542-2.484-0.949-4.607-0.949H32.419
		c-0.678,0-1.491,0-2.213,0.045c-2.936,0.136-5.737,0.452-8.312,0.045l-0.452-0.09l-0.226-0.045v-0.361l0.045-0.497l0.09-1.039
		c0.045-0.361,0.09-0.678,0.09-1.174v-2.168v-3.523v-0.452v-0.316v-0.271l-0.09-0.903c-0.045-0.587-0.136-1.129-0.136-1.671
		C21.126,14.498,21.126,14.227,21.126,14.002L21.126,14.002z M28.534,32.431c-1.762,0.136-3.569,0.181-5.15-0.226
		c-0.813-0.181-1.536-0.542-2.078-1.084c-0.271-0.271-0.497-0.632-0.678-0.994c0.136,0,0.271-0.045,0.271-0.045l0.542,0.09
		c3.162,0.452,6.098,0.09,8.899-0.045c0.723-0.045,1.355-0.045,2.078-0.045h15.042c1.22,0,2.349-0.136,3.207-0.361
		c-0.045,0.045-0.045,0.09-0.09,0.136c-0.316,0.723-0.903,1.355-1.581,1.717c-0.361,0.181-0.723,0.316-1.084,0.361
		c-0.316,0.045-0.949,0-1.491,0h-6.776c-0.858,0-1.671,0-2.53,0.045c-0.407-0.045-0.768-0.09-1.129-0.09
		c-0.587-0.045-1.174-0.045-1.762-0.045h-0.452c-0.045,0-0.226,0-0.361,0l-0.407,0.09c-0.271,0-0.542,0.09-0.768,0.181
		c-0.045,0-0.09,0.045-0.136,0.045c-0.271,0-0.542,0.045-0.813,0.045L28.534,32.431z M39.285,37.897c-0.09,0-0.226,0-0.316,0
		c-0.226-0.09-0.452-0.181-0.678-0.136c-0.361,0.045-0.768,0.09-1.129,0.136c-1.084,0-2.168-0.045-3.207-0.045v-0.271
		C33.91,37.039,33.91,36.542,33.91,36v-0.587v-0.407c0.09,0,0.136,0,0.226,0c1.626,0.045,3.207,0.045,4.833,0.045
		c0.09,0.361,0.136,0.723,0.181,1.129C39.195,36.723,39.24,37.31,39.285,37.897z M32.058,68.885h-2.123c-0.226,0-0.361,0-0.542,0
		l-0.858,0.09c-0.542,0.045-1.084,0.09-1.626,0.136c-0.136,0-0.226,0-0.361,0c-0.045,0-0.136,0-0.181,0v-0.09l-0.045-0.226
		l-0.045-0.497c-0.045-0.678-0.136-1.355-0.136-2.078c0-0.361,0-0.723,0-1.039v-0.316c0.181,0,0.361-0.045,0.587-0.045l0.813-0.045
		c0.136,0,0.271,0,0.361,0c0.09,0,0.271,0,0.407,0h4.562c0.09,0.271,0.136,0.587,0.181,0.903c0.136,1.22,0.181,2.484,0.271,3.794
		C32.961,69.065,32.509,68.885,32.058,68.885z M45.835,68.885h-2.078c-0.316,0-0.587,0-0.813,0.045
		c-0.949,0.09-1.852,0.181-2.665,0.181h-0.136l-0.045-0.271c-0.09-0.858-0.181-1.762-0.226-2.62c0-0.361,0-0.723,0-1.039v-0.452
		h6.685c0.09,0.271,0.136,0.587,0.181,0.903c0.181,1.22,0.181,2.484,0.271,3.794C46.693,69.065,46.287,68.885,45.835,68.885z
		 M46.648,61.703h-4.065c-0.813-0.045-1.626-0.045-2.439-0.045c-0.09,0-0.226,0-0.316,0h-0.136H28.805
		c-0.813-0.045-1.626-0.045-2.439-0.045c-0.09,0-0.181,0-0.316,0l-0.407,0.045c-0.361,0.045-0.723,0.136-1.084,0.181l-0.045,0.045
		c-0.452,0.045-0.949,0.045-1.4,0.09c-0.542,0-1.039,0.045-1.536,0l-0.407-0.045v-0.361l0.136-1.671c0-0.045,0-0.226,0-0.316v-9.938
		v-5.15c0-0.181,0-0.542-0.045-0.768l-0.045-0.678l-0.136-1.265c-0.045-0.407-0.045-0.813-0.045-1.174v-0.226l0,0l0,0l0,0l0,0
		c0,0,0.045,0,0.09,0l0.361-0.045c0.497-0.045,1.039-0.045,1.581,0c0.542,0,1.129,0.045,1.717,0.09
		c0.587,0.045,1.129,0.09,1.852,0.09l6.956-0.09c4.653-0.09,9.305-0.136,13.913-0.226c0.587-0.045,1.084,0,1.852-0.09l0.858-0.09
		l0.723-0.045c0.09,0,0.181,0,0.271,0c0.045,0,0.09,0,0.136,0.045s0.045,0.09,0.045,0.136c0,0.09,0.045,0.181,0.045,0.271
		c0,0,0,0.181,0,0.316v0.407c0,0.271-0.045,0.542-0.045,0.949l0.045,0.858l0.045,1.717l0.09,3.478
		c0.136,4.653,0.271,9.26,0.407,13.868c0,0.226,0.045,0.452,0.09,0.587C51.346,62.109,49.178,61.703,46.648,61.703z M62.051,52.171
		c0,0.136-0.045,0.181-0.045,0.226c0,0.09-0.045,0.136-0.045,0.181c-0.181,0.497-0.678,0.768-0.949,0.768
		c-0.181,0-0.316-0.09-0.542-0.316c-0.181-0.226-0.407-0.678-0.497-1.174c-0.136-0.497-0.226-1.174-0.497-1.988
		c-0.226-0.813-0.813-1.671-1.491-2.259c-0.181-0.136-0.361-0.271-0.497-0.407c-0.09-0.09-0.226-0.136-0.361-0.226
		c-0.136-0.045-0.226-0.136-0.361-0.181c-0.452-0.181-0.858-0.271-1.265-0.361c-0.768-0.136-1.445-0.181-2.078-0.226
		c-0.045,0-0.09,0-0.136,0l0.045-1.491l0.045-1.265c0.181,0,0.361,0.045,0.542,0.09c0.949,0.181,1.988,0.407,2.801,0.768
		c0.858,0.361,1.626,0.903,2.349,1.491c1.4,1.22,2.53,2.846,2.936,4.517c0.09,0.407,0.136,0.813,0.136,1.22
		C62.097,51.765,62.051,51.991,62.051,52.171z"/>
</g>
</svg>
