<?xml version="1.0" encoding="utf-8"?>
<!-- Generator: Adobe Illustrator 17.0.0, SVG Export Plug-In . SVG Version: 6.00 Build 0)  -->
<!DOCTYPE svg PUBLIC "-//W3C//DTD SVG 1.1//EN" "http://www.w3.org/Graphics/SVG/1.1/DTD/svg11.dtd">
<svg version="1.1" id="Layer_1" xmlns="http://www.w3.org/2000/svg" xmlns:xlink="http://www.w3.org/1999/xlink" x="0px" y="0px"
	 width="288px" height="288px" viewBox="0 0 288 288" enable-background="new 0 0 288 288" xml:space="preserve">
<g>
	<g>
		<g>
			<path fill="#FFFFFF" d="M239.473,133.255c0.142,1.007,0.368,1.963,1.716,3.276l5.715,5.812l0.806,0.796
				c0.302,0.295,0.17,0.153,0.281,0.254l0.323,0.257c0.212,0.177,0.42,0.379,0.486,0.573c0.028,0.094,0.056,0.17,0.125,0.24
				c-0.156,0.167,0.045,0.288,0.889,0.636c0.195,0.066-0.073,0.518-0.261,0.514c-1.112-0.052-1.463-0.153-1.542,0.059l-0.014,0.09
				l-0.215,0.344c-0.135,0.236-0.243,0.483-0.337,0.743c-0.181,0.521-0.285,1.091-0.316,1.702c-1.796,1.393-3.043,4.526-5.475,4.273
				c-0.521-0.052-2.501,1.358-3.206,2.255c-2.519,3.199-4.523,6.652-8.344,8.855c-0.799,3.064-3.432,3.943-5.68,5.614
				c-3.828,2.845-7.518,5.989-9.71,10.269c-0.375,0.723-1.532,2.018-2.154,2.321c-1.806,0.889-3.269,2.321-4.818,3.842
				l-12.509,12.273c-0.636,0.625-1.657,1.664-1.674,2.004c-0.163,2.862-2.803,4.127-5.103,5.791
				c-0.868,0.632-2.067,1.688-2.47,2.439c-1.369,2.532-3.373,3.898-5.569,5.53c-1.289,0.959-2.592,2.536-3.658,3.898
				c-2.001,2.55-2.654,5.826-6.639,7.236c-0.486,0.177-1.747,1.747-2.241,2.616c-1.935,3.425-6.434,5.954-7.771,9.567
				c-0.076,0.212-0.848,0.747-1.296,1.025c-4.787,3.001-7.91,7.504-11.037,11.634c-2.206,2.904-4.165,5.728-7.194,7.775
				c-2.588,1.744-2.536,3.807-3.866,5.155c-1.56,1.591-3.946,2.14-5.697,4.422c-0.514,0.67-0.862,1.39-1.23,2.077
				c-0.598,1.16-1.195,2.324-1.789,3.477c-2.849,5.749-4.304,10.79-3.248,14.559c0.347,1.233,1.674,1.112,3.595-0.448
				c10.592-8.622,20.419-18.363,30.258-28.086c1.421-1.4,2.286-2.741,2.414-4.044c0.08-0.827,0.358-1.786,1.667-1.904
				c1.619-0.135,3.203-1.539,4.724-3.106l6.951-7.368l25.373-26.739c12.315-12.85,25.516-24.856,37.615-37.959
				c3.008-3.258,5.621-6.208,6.778-9.918c2.755-0.073,5.013-1.942,7.563-4.627l6.705-7.003l11.596-11.794l-12.023-11.881
				l-11.704-11.79c-1.063-1.056-2.404-2.341-3.408-2.796c-1.167-0.525-2.098-0.254-3.206-0.333
				c-1.299-4.756-2.157-6.524-5.183-8.521c-3.543-2.331-6.489-4.568-8.483-8.344c-0.327-0.618-1.15-1.452-1.81-2.001
				c-7.08-5.836-12.631-13.176-19.506-19.367c-7.702-6.93-14.959-14.587-22.452-21.861c-1.713-1.661-3.609-3.14-5.447-4.606
				c-2.908-2.314-2.922-2.279-2.585-5.058l-0.146-0.396c-2.748-2.904-2.793-2.922-5.082-2.633l0.052,0.733
				c-0.049-0.135-0.132-0.295-0.129-0.393c0.003-0.132,0.083-0.212,0.129-0.316l0.504-3.071l0.028,0.063
				c-3.377-2.89-6.809-5.715-8.178-9.564c-0.205-0.57-0.997-1.563-1.612-2.067c-2.922-2.359-5.537-5.659-8.886-6.91
				c-1.039-0.389-2.598-2.161-3.919-3.297l-0.198-0.073c-2.164-1.181-2.366-3.686-3.849-4.506c-3.328-1.841-5.322-4.422-7.365-7.33
				c-0.427-0.608-1.431-1.525-1.938-1.713c-2.414-0.868-3.991-2.446-5.371-4.94c-0.577-1.042-1.987-1.81-2.397-1.358
				c-1.379,1.522-3.133,2.762-1.581,6.628c0.809,2.018,1.021,3.814,1.72,5.794c1.247,3.557,2.852,7.17,6.302,11.099
				c1.379,1.574,2.918,3.408,3.641,4.922c2.282,4.804,6.646,9.442,9.616,14.16c0.969,1.546,2.095,2.689,3.717,3.606
				c1.81,1.021,6.319,5.138,7.952,7.024c0.393,0.445,0.865,0.858,1.303,1.296l0.65-0.577l-0.076-0.031l-0.587,0.57
				c0.014,0.921,0.257,2.557,1.626,2.838c2.79,0.563,5.506,4.141,8.209,5.03c0.528,0.174,2.397,2.369,2.567,3.095
				c0.834,3.561,3.787,6.163,6.996,8.091c2.866,1.723,5.162,3.196,6.482,6.371c0.215,0.528,1.15,1.32,1.779,1.956
				c5.138,5.152,10.144,10.456,15.716,15.108c0.855,0.712,1.685,1.761,2.338,2.675c3.206,4.53,7.524,7.941,11.592,11.523
				c1.261,1.112,3.085,1.501,4.134,2.612c1.192,1.258,1.699,2.967,2.72,4.464c0.615,0.9,1.605,1.879,2.508,2.654
				c4.773,4.103,9.244,8.872,14.34,12.252L239.473,133.255z M154.196,255.386c0.09-0.156,0.674-0.354,1.028-0.532
				c-0.052,0.198-0.038,0.42-0.174,0.587l-2.744,3.29l0.09,0.431l-0.038-0.452C152.956,257.603,153.526,256.502,154.196,255.386z
				 M135.079,14.299c0.4,0,0.924,0.201,1.407,0.337c0.035,0.34,0.215,0.827,0.063,0.98c-0.135,0.132-0.646-0.118-0.994-0.198
				C135.385,15.018,134.996,14.295,135.079,14.299z M151.358,254.612l0.403,0.056c-0.274,0.198-0.545,0.396-0.917,0.664
				C151.077,255.004,151.216,254.81,151.358,254.612z M251.211,160.737l0.274-0.479l0.243,0.083L251.211,160.737z M144.688,269.501
				l-0.024,0.396l-0.42,0.083L144.688,269.501z"/>
		</g>
	</g>
	<g>
		<g>
			<path fill="#FFFFFF" d="M153.578,137.17c-0.5-0.611-1.014-1.129-2.175-1.105c-1.671,0.035-3.352-0.066-5.027-0.069
				c-1.862,0-3.752,0.195-5.572,0.01c-1.504-0.149-2.574-0.191-3.224,1.004c-0.097,0.181-1.254,0.316-1.4,0.177
				c-1.706-1.647-3.001-1.275-4.127,0.361c-1.39-0.285-3.3,1.049-4.252-0.851c-0.205-0.403-1.681-0.809-2.383-0.67
				c-2.494,0.483-4.87,1.504-7.5,0.361c-1.685,1.601-3.217,0.361-4.923-0.045c-2.911-0.691-5.892-1.08-8.713,0.393
				c-0.479,0.247-1.549,0.344-1.952,0.118c-1.174-0.65-2.439-0.674-3.776-0.691l-10.807-0.167c-0.549-0.007-1.449,0.007-1.601,0.233
				c-1.32,1.911-3.022,0.941-4.752,0.486c-0.653-0.17-1.636-0.267-2.14-0.024c-1.702,0.823-3.172,0.368-4.839-0.028
				c-0.98-0.233-2.237-0.042-3.293,0.167c-1.984,0.386-3.696,2.244-6.048,0.42c-0.288-0.219-1.525,0-2.116,0.268
				c-2.338,1.053-5.402-0.34-7.559,1.268c-0.125,0.094-0.698-0.073-1.014-0.195c-3.397-1.264-6.722-0.288-9.887,0.424
				c-2.227,0.497-4.315,1.105-6.527,0.41c-1.89-0.598-2.765,0.9-3.932,0.914c-1.376,0.017-2.654-1.278-4.415-0.903
				c-0.518,0.111-0.983,0.375-1.442,0.601c-0.757,0.393-1.525,0.792-2.296,1.192c-3.748,2.053-6.583,4.586-7.764,8
				c-0.389,1.119,0.247,1.97,1.761,2.227c8.379,1.39,16.911,1.452,25.439,1.532c1.23,0.014,2.192-0.32,2.817-1.153
				c0.396-0.528,0.938-1.011,1.556-0.167c0.768,1.049,2.067,1.178,3.415,1.146l6.243-0.292c7.577-0.32,15.153-0.643,22.723-0.966
				c10.974-0.379,21.965,0.465,32.953-0.243c2.734-0.177,5.155-0.413,7.278-2.22c1.233,1.897,3.033,2.171,5.319,2.077
				c6.048-0.261,12.113-0.361,18.179-0.452l10.244,0.063c0.924-0.003,2.07-0.045,2.706-0.434c0.736-0.452,1.025-1.306,1.542-2.032
				c2.64,2.446,3.787,3.092,5.975,2.359c2.564-0.855,4.822-1.355,7.337-0.097c0.413,0.208,1.136,0.215,1.664,0.135
				c5.631-0.879,11.255,0.386,16.949-0.097c6.378-0.545,12.881-0.264,19.322-0.42c1.469-0.038,2.942-0.33,4.384-0.594
				c2.275-0.42,2.268-0.455,3.331,1.747l0.236,0.181c2.463,0.111,2.491,0.09,3.366-1.737l-0.344-0.483
				c0.08,0.063,0.188,0.118,0.226,0.188c0.056,0.094,0.056,0.208,0.083,0.316l1.119,2.529l-0.038-0.024
				c2.73-0.344,5.461-0.775,7.736,0.98c0.337,0.257,1.119,0.4,1.605,0.32c2.303-0.396,4.881,0.087,6.885-1.396
				c0.622-0.459,2.077-0.309,3.147-0.438l0.118-0.087c1.459-0.695,2.64,0.934,3.644,0.465c2.255-1.053,4.249-0.636,6.406-0.024
				c0.452,0.132,1.292,0.069,1.591-0.16c1.431-1.094,2.807-1.094,4.495-0.306c0.705,0.33,1.657-0.125,1.64-0.733
				c-0.063-2.05,0.163-4.169-2.202-5.805c-1.233-0.855-2.109-1.973-3.276-2.883c-2.098-1.633-4.37-3.057-7.59-3.394
				c-1.289-0.135-2.758-0.347-3.734-0.907c-3.092-1.786-7.014-1.977-10.366-3.213c-1.098-0.406-2.088-0.42-3.196,0.08
				c-1.233,0.559-4.995,0.837-6.527,0.657c-0.365-0.038-0.754,0.003-1.132,0.003l-0.031,0.868l0.049-0.031l0.007-0.82
				c-0.41-0.643-1.23-1.629-1.949-0.855c-1.463,1.574-4.207,0.966-5.774,2.244c-0.306,0.25-2.081,0.021-2.47-0.368
				c-1.918-1.928-4.339-1.681-6.58-0.775c-1.997,0.809-3.644,1.39-5.603,0.076c-0.327-0.219-1.077-0.122-1.629-0.125
				c-4.488-0.01-8.983-0.222-13.44,0.431c-0.681,0.101-1.504-0.052-2.185-0.236c-3.373-0.938-6.743-0.295-10.081,0.049
				c-1.035,0.104-2.001,1.119-2.942,1.077c-1.07-0.049-2.032-0.896-3.133-1.233c-0.66-0.201-1.522-0.195-2.251-0.104
				c-3.87,0.476-7.896,0.264-11.596,1.476L153.578,137.17z M44.946,147.38c0.108-0.045,0.448,0.229,0.681,0.351
				c-0.108,0.104-0.201,0.267-0.333,0.292l-2.63,0.386l-0.149,0.365l0.181-0.347C43.438,148.071,44.168,147.696,44.946,147.38z
				 M250.975,147.47c-0.174,0.281-0.493,0.511-0.761,0.757c-0.163-0.215-0.455-0.431-0.455-0.65
				c0.003-0.188,0.333-0.372,0.518-0.563C250.524,147.175,251.01,147.411,250.975,147.47z M44.05,144.827l0.149,0.323
				c-0.205-0.056-0.41-0.108-0.688-0.177C43.754,144.906,43.9,144.868,44.05,144.827z M128.524,149.058l0.33-0.146l0.069,0.233
				L128.524,149.058z M34.649,150.638l-0.184,0.264l-0.219-0.236L34.649,150.638z"/>
		</g>
	</g>
</g>
</svg>
